<?xml version="1.0" standalone="no"?>
<!DOCTYPE svg PUBLIC "-//W3C//DTD SVG 1.1//EN" "http://www.w3.org/Graphics/SVG/1.1/DTD/svg11.dtd" >
<svg xmlns="http://www.w3.org/2000/svg">
<metadata>Generated by IcoMoon</metadata>
<defs>
<font id="icomoon" horiz-adv-x="1024">
<font-face units-per-em="1024" ascent="960" descent="-64" />
<missing-glyph horiz-adv-x="1024" />
<glyph unicode="&#x20;" horiz-adv-x="512" d="" />
<glyph unicode="&#xe900;" glyph-name="login-domain" d="M512 874.667c-235.264 0-426.667-191.403-426.667-426.667s191.403-426.667 426.667-426.667c235.264 0 426.667 191.403 426.667 426.667s-191.403 426.667-426.667 426.667zM850.389 490.667h-117.931c-5.265 93.387-31.39 184.407-76.459 266.368 52.233-24.407 97.446-61.628 131.43-108.199 33.988-46.571 55.646-100.981 62.959-158.169zM534.613 788.181c44.16-58.197 103.552-161.28 112.085-297.515h-261.419c5.931 110.763 42.411 214.528 104.576 297.557 7.339 0.427 14.677 1.109 22.144 1.109 7.637 0 15.104-0.683 22.613-1.152zM370.688 758.315c-41.984-80.683-66.219-172.16-70.741-267.648h-126.336c7.372 57.692 29.339 112.55 63.825 159.385s80.349 84.097 133.253 108.263zM173.611 405.333h126.891c5.803-101.504 28.373-191.061 66.389-265.813-51.96 24.495-96.908 61.687-130.69 108.147s-55.309 100.685-62.59 157.666zM488.533 107.819c-59.776 72.448-95.061 173.952-102.784 297.515h260.821c-8.875-118.315-47.659-221.696-111.061-297.472-7.765-0.512-15.531-1.195-23.509-1.195-7.936 0-15.659 0.683-23.467 1.152zM659.669 140.757c40.747 76.544 65.621 166.443 72.149 264.576h118.528c-7.202-56.503-28.416-110.306-61.722-156.518-33.301-46.208-77.632-83.354-128.956-108.058z" />
<glyph unicode="&#xe901;" glyph-name="login-password" d="M512 789.333c70.571 0 128-57.429 128-128h85.333c0 117.632-95.701 213.333-213.333 213.333s-213.333-95.701-213.333-213.333v-85.333h-42.667c-47.061 0-85.333-38.272-85.333-85.333v-384c0-47.061 38.272-85.333 85.333-85.333h512c47.061 0 85.333 38.272 85.333 85.333v384c0 47.061-38.272 85.333-85.333 85.333h-384v85.333c0 70.571 57.429 128 128 128zM768.085 106.667h-213.419v97.195c25.387 14.805 42.667 42.027 42.667 73.472 0 47.061-38.272 85.333-85.333 85.333s-85.333-38.272-85.333-85.333c0-31.403 17.28-58.667 42.667-73.472v-97.195h-213.333v384h512l0.085-384z" />
<glyph unicode="&#xe902;" glyph-name="login-user" d="M512 874.667c-42.193 0-83.439-12.512-118.522-35.953s-62.426-56.759-78.573-95.741c-16.147-38.982-20.371-81.876-12.14-123.258s28.55-79.395 58.385-109.229c29.835-29.837 67.846-50.155 109.228-58.385 41.387-8.235 84.279-4.006 123.26 12.139s72.299 43.49 95.74 78.573c23.445 35.082 35.955 76.328 35.955 118.522 0 56.579-22.477 110.842-62.485 150.849-40.004 40.008-94.268 62.484-150.848 62.484zM512 533.333c-25.314 0-50.065 7.507-71.113 21.572-21.050 14.065-37.456 34.056-47.144 57.445s-12.223 49.126-7.284 73.955c4.939 24.829 17.13 47.637 35.031 65.538 17.9 17.901 40.709 30.092 65.537 35.031 24.832 4.939 50.569 2.404 73.958-7.284 23.386-9.688 43.379-26.094 57.442-47.144 14.067-21.050 21.572-45.797 21.572-71.113 0-33.948-13.487-66.505-37.491-90.51s-56.563-37.49-90.509-37.49zM896 64v42.667c0 79.211-31.467 155.179-87.479 211.187-56.009 56.013-131.977 87.479-211.187 87.479h-170.667c-79.212 0-155.178-31.467-211.189-87.479-56.011-56.009-87.477-131.977-87.477-211.187v-42.667h85.333v42.667c0 56.58 22.476 110.844 62.484 150.848 40.008 40.009 94.27 62.485 150.849 62.485h170.667c56.58 0 110.844-22.477 150.848-62.485 40.009-40.004 62.485-94.268 62.485-150.848v-42.667h85.333z" />
<glyph unicode="&#xe903;" glyph-name="expand_more" d="M512 304l-256 256.001 59.733 59.733 196.267-196.268 196.267 196.268 59.733-59.733-256-256.001z" />
<glyph unicode="&#xe904;" glyph-name="close" d="M265.601 150.4l-51.2 51.2 246.399 246.4-246.399 246.399 51.2 51.2 246.399-246.399 246.4 246.399 51.2-51.2-246.4-246.399 246.4-246.4-51.2-51.2-246.4 246.4-246.399-246.4z" />
<glyph unicode="&#xe905;" glyph-name="local_library" d="M512-11.733c-51.913 49.067-111.644 86.758-179.2 113.067-67.555 26.313-138.311 39.467-212.267 39.467v473.602c73.956 0 144.541-12.629 211.755-37.888 67.186-25.23 127.091-61.668 179.712-109.314 52.621 47.646 112.525 84.084 179.712 109.314 67.213 25.259 137.801 37.888 211.755 37.888v-473.602c-74.667 0-145.591-13.154-212.779-39.467-67.213-26.308-126.775-64-178.688-113.067zM512 110.933c43.379 32.713 89.771 59.196 139.179 79.445 49.438 20.284 101.175 33.98 155.221 41.088v275.2c-51.2-7.821-101.504-25.412-150.912-52.779-49.438-27.392-97.267-63.842-143.488-109.355-45.513 44.8-92.97 80.713-142.378 107.733-49.436 27.025-100.11 45.158-152.021 54.4v-275.2c53.333-7.108 104.719-20.621 154.155-40.533 49.408-19.908 96.157-46.575 140.245-80zM512 576.002c-47.646 0-88.704 17.067-123.178 51.2-34.503 34.133-51.755 75.378-51.755 123.733 0 47.645 17.252 88.533 51.755 122.667 34.475 34.133 75.532 51.2 123.178 51.2s88.717-17.067 123.221-51.2c34.475-34.133 51.712-75.022 51.712-122.667 0-48.355-17.237-89.6-51.712-123.733-34.505-34.133-75.575-51.2-123.221-51.2zM512 668.802c22.754 0 41.954 8.007 57.6 24.021 15.646 15.986 23.467 35.357 23.467 58.112 0 22.045-7.821 41.074-23.467 57.088-15.646 15.986-34.846 23.979-57.6 23.979s-41.954-7.993-57.6-23.979c-15.646-16.014-23.467-35.043-23.467-57.088 0-22.755 7.821-42.126 23.467-58.112 15.646-16.014 34.846-24.021 57.6-24.021z" />
<glyph unicode="&#xe906;" glyph-name="lock" d="M294.4 706.134c0 61.156 21.148 112.711 63.445 154.667 42.325 41.956 93.709 62.934 154.155 62.934s111.829-20.978 154.155-62.934c42.295-41.955 63.445-93.511 63.445-154.667v-77.867h35.2c27.021 0 49.963-9.429 68.821-28.288 18.829-18.83 28.245-41.756 28.245-68.78v-420.267c0-27.021-9.417-49.963-28.245-68.821-18.859-18.829-41.801-28.245-68.821-28.245h-505.6c-27.023 0-49.949 9.417-68.779 28.245-18.859 18.859-28.288 41.801-28.288 68.821v420.267c0 27.023 9.429 49.949 28.288 68.78 18.83 18.859 41.756 28.288 68.779 28.288h373.334v77.867c0 34.133-11.733 62.749-35.2 85.845-23.467 23.125-51.913 34.688-85.333 34.688s-61.867-11.563-85.334-34.688c-23.467-23.097-35.2-51.712-35.2-85.845h-97.067zM259.2 110.933h505.6v420.267h-505.6v-420.267zM512 406.4c-23.467 0-43.55-8.346-60.245-25.045-16.725-16.725-25.088-36.821-25.088-60.288s8.363-43.546 25.088-60.245c16.695-16.725 36.779-25.088 60.245-25.088s43.563 8.363 60.288 25.088c16.695 16.7 25.045 36.779 25.045 60.245s-8.35 43.563-25.045 60.288c-16.725 16.7-36.821 25.045-60.288 25.045zM259.2 531.2v0z" />
<glyph unicode="&#xe907;" glyph-name="logout" d="M476.8 531.2h343.467l-107.733 106.667 67.2 69.333 225.067-225.067-225.067-225.067-67.2 69.333 107.733 106.667h-343.467v98.133zM611.2 874.667v-97.067h-300.8v-590.933h300.8v-97.067h-300.8c-27.022 0-49.949 9.417-68.779 28.245-18.859 18.859-28.288 41.801-28.288 68.821v590.933c0 27.022 9.429 49.963 28.288 68.821 18.83 18.83 41.757 28.245 68.779 28.245h300.8z" />
<glyph unicode="&#xe908;" glyph-name="cleaning_services" d="M118.401-28.796v308.262c0 60.446 21.333 112 64 154.667s94.223 64 154.667 64h37.333v329.602c0 27.022 9.429 49.963 28.288 68.821 18.831 18.83 41.757 28.245 68.778 28.245h81.067c27.025 0 49.95-9.415 68.779-28.245 18.859-18.859 28.288-41.799 28.288-68.821v-329.602h37.333c60.446 0 112-21.333 154.667-64s64-94.221 64-154.667v-308.262h-787.199zM215.468 68.267h75.733v121.604c0 13.508 4.623 25.071 13.867 34.688 9.245 9.583 20.623 14.374 34.133 14.374s25.060-4.791 34.645-14.374c9.615-9.617 14.421-21.18 14.421-34.688v-121.604h74.666v121.604c0 13.508 4.809 25.071 14.421 34.688 9.587 9.583 21.137 14.374 34.645 14.374 13.513 0 25.062-4.791 34.645-14.374 9.617-9.617 14.421-21.18 14.421-34.688v-121.604h74.667v121.604c0 13.508 4.809 25.071 14.421 34.688 9.587 9.583 21.137 14.374 34.645 14.374 13.513 0 24.892-4.791 34.133-14.374 9.246-9.617 13.867-21.18 13.867-34.688v-121.604h75.733v211.2c0 34.133-11.904 62.933-35.712 86.4-23.834 23.467-52.463 35.2-85.888 35.2h-349.866c-33.422 0-62.037-11.733-85.845-35.2-23.836-23.467-35.755-52.267-35.755-86.4v-211.2zM552.533 498.133v329.602h-81.067v-329.602h81.067z" />
<glyph unicode="&#xe909;" glyph-name="dark_mode" d="M512 55.467c-109.509 0-202.309 38.042-278.398 114.133-76.089 76.087-114.133 168.887-114.133 278.4 0 108.799 38.045 201.599 114.133 278.399s168.889 115.2 278.398 115.2c8.533 0 17.254-0.171 26.155-0.512 8.875-0.37 17.579-1.266 26.112-2.688-24.175-22.756-43.733-49.423-58.667-80s-22.4-63.645-22.4-99.2c0-66.845 23.467-123.733 70.4-170.666s104.179-70.4 171.733-70.4c34.846 0 67.558 7.467 98.133 22.4 30.579 14.933 56.892 34.487 78.933 58.667 1.425-8.533 2.321-16.883 2.688-25.045 0.341-8.192 0.512-16.555 0.512-25.088 0-109.513-38.4-202.483-115.2-278.912-76.8-76.459-169.6-114.688-278.4-114.688zM512 168.533c51.913 0 99.558 13.154 142.933 39.467 43.379 26.308 76.8 61.508 100.267 105.6-10.667-2.133-20.975-3.729-30.933-4.779-9.954-1.084-19.908-1.267-29.867-0.555-86.042 7.108-159.287 40.346-219.733 99.712-60.442 59.392-94.576 133.887-102.398 223.487 0 9.244 0.355 19.029 1.067 29.355 0.711 10.297 2.133 20.423 4.267 30.379-43.378-23.467-78.393-56.889-105.045-100.267-26.681-43.378-40.021-91.024-40.021-142.932 0-77.513 27.207-143.462 81.621-197.845 54.386-54.417 120.335-81.621 197.843-81.621z" />
<glyph unicode="&#xe90a;" glyph-name="sucess-check" d="M512.005 874.665c-235.521 0-426.668-191.146-426.668-426.665s191.146-426.67 426.668-426.67c235.52 0 426.665 191.15 426.665 426.67 0 235.519-191.145 426.665-426.665 426.665zM512.005 106.665c-188.161 0-341.335 153.175-341.335 341.335 0 188.159 153.174 341.332 341.335 341.332s341.33-153.174 341.33-341.332c0-188.16-153.17-341.335-341.33-341.335zM707.845 636.585l-281.174-281.176-110.507 110.083-60.16-60.163 170.667-170.665 341.334 341.334-60.16 60.586z" />
<glyph unicode="&#xe90b;" glyph-name="warning" d="M42.663 64h938.667l-469.334 810.665-469.333-810.665zM554.665 192h-85.336v85.33h85.336v-85.33zM554.665 362.665h-85.336v170.668h85.336v-170.668z" />
<glyph unicode="&#xe90c;" glyph-name="error" d="M512.005 874.665c-235.521 0-426.668-191.146-426.668-426.665s191.146-426.67 426.668-426.67c235.52 0 426.665 191.15 426.665 426.67 0 235.519-191.145 426.665-426.665 426.665zM554.67 234.665h-85.332v85.335h85.332v-85.335zM554.67 405.33h-85.332v256.003h85.332v-256.003z" />
<glyph unicode="&#xe90d;" glyph-name="info" d="M469.338 661.332h85.332v-85.334h-85.332v85.334zM469.338 490.665h85.332v-256.001h-85.332v256.001zM512.005 874.665c-235.521 0-426.668-191.146-426.668-426.665s191.146-426.67 426.668-426.67c235.52 0 426.665 191.15 426.665 426.67 0 235.519-191.145 426.665-426.665 426.665zM512.005 106.665c-188.161 0-341.335 153.175-341.335 341.335 0 188.159 153.174 341.332 341.335 341.332s341.33-153.174 341.33-341.332c0-188.16-153.17-341.335-341.33-341.335z" />
<glyph unicode="&#xe90e;" glyph-name="email" d="M853.333 789.333h-682.667c-46.933 0-84.907-38.4-84.907-85.333l-0.427-512c0-46.933 38.4-85.333 85.333-85.333h682.667c46.933 0 85.333 38.4 85.333 85.333v512c0 46.933-38.4 85.333-85.333 85.333zM853.333 618.667l-341.333-213.333-341.333 213.333v85.333l341.333-213.333 341.333 213.333v-85.333z" />
<glyph unicode="&#xe90f;" glyph-name="star-full" d="M512.005 223.145l263.68-159.15-69.975 299.95 232.96 201.811-306.775 26.026-119.89 282.88-119.895-282.88-306.773-26.026 232.96-201.811-69.974-299.95 263.681 159.15z" />
<glyph unicode="&#xe910;" glyph-name="arrow-right" d="M427.524 704l-60.16-60.16 195.413-195.84-195.413-195.84 60.16-60.16 256 256-256 256z" />
<glyph unicode="&#xe911;" glyph-name="arrow-left" d="M596.476 192l60.16 60.16-195.413 195.84 195.413 195.84-60.16 60.16-256-256 256-256z" />
<glyph unicode="&#xe912;" glyph-name="target-right" d="M512 21.333c-59.021 0-114.489 11.2-166.4 33.6s-97.067 52.8-135.467 91.2c-38.4 38.4-68.8 83.554-91.2 135.467s-33.6 107.379-33.6 166.4c0 59.021 11.2 114.489 33.6 166.4s52.8 97.067 91.2 135.467c38.4 38.4 83.555 68.8 135.467 91.2s107.379 33.6 166.4 33.6c59.021 0 114.487-11.2 166.4-33.6s97.067-52.8 135.467-91.2c38.4-38.4 68.8-83.555 91.2-135.467s33.6-107.379 33.6-166.4c0-59.021-11.2-114.487-33.6-166.4s-52.8-97.067-91.2-135.467c-38.4-38.4-83.554-68.8-135.467-91.2s-107.379-33.6-166.4-33.6zM512 106.667c95.287 0 176 33.067 242.133 99.2s99.2 146.846 99.2 242.133c0 95.289-33.067 176-99.2 242.133s-146.846 99.2-242.133 99.2c-95.289 0-176-33.067-242.133-99.2s-99.2-146.845-99.2-242.133c0-95.287 33.067-176 99.2-242.133s146.845-99.2 242.133-99.2zM512 192c-71.113 0-131.555 24.887-181.333 74.667s-74.667 110.221-74.667 181.333c0 71.113 24.889 131.555 74.667 181.333s110.221 74.667 181.333 74.667c71.113 0 131.554-24.889 181.333-74.667s74.667-110.221 74.667-181.333c0-71.113-24.887-131.554-74.667-181.333s-110.221-74.667-181.333-74.667zM512 277.333c46.933 0 87.113 16.713 120.533 50.133s50.133 73.6 50.133 120.533c0 46.933-16.713 87.111-50.133 120.533s-73.6 50.133-120.533 50.133c-46.933 0-87.111-16.711-120.533-50.133s-50.133-73.6-50.133-120.533c0-46.933 16.711-87.113 50.133-120.533s73.6-50.133 120.533-50.133zM512 362.667c-23.467 0-43.554 8.354-60.267 25.067s-25.067 36.8-25.067 60.267c0 23.467 8.354 43.554 25.067 60.267s36.8 25.067 60.267 25.067c23.467 0 43.554-8.354 60.267-25.067s25.067-36.8 25.067-60.267c0-23.467-8.354-43.554-25.067-60.267s-36.8-25.067-60.267-25.067z" />
<glyph unicode="&#xe913;" glyph-name="trending" d="M775.467 405.333h-604.8c-12.089 0-22.222 4.087-30.4 12.267s-12.267 18.313-12.267 30.4c0 12.087 4.089 22.221 12.267 30.4s18.311 12.267 30.4 12.267h604.8l-58.667 59.734c-8.533 8.533-12.621 18.489-12.267 29.867s4.8 21.333 13.333 29.867c8.533 7.823 18.667 11.911 30.4 12.267s21.513-3.733 29.333-12.267l131.2-132.267c8.533-8.533 12.8-18.487 12.8-29.867s-4.267-21.333-12.8-29.867l-132.267-132.267c-7.821-7.821-17.6-11.733-29.333-11.733s-21.867 3.913-30.4 11.733c-8.533 8.533-12.8 18.667-12.8 30.4s4.267 21.867 12.8 30.4l58.667 58.667z" />
<glyph unicode="&#xe914;" glyph-name="laptop" d="M42.667 106.667c-12.089 0-22.222 4.087-30.4 12.267s-12.267 18.313-12.267 30.4c0 12.087 4.089 22.221 12.267 30.4s18.311 12.267 30.4 12.267h128v42.667c-23.467 0-43.555 8.354-60.267 25.067s-25.067 36.8-25.067 60.267v426.667c0 23.467 8.355 43.555 25.067 60.267s36.8 25.067 60.267 25.067h682.667c23.467 0 43.554-8.355 60.267-25.067s25.067-36.8 25.067-60.267v-426.667c0-23.467-8.354-43.554-25.067-60.267s-36.8-25.067-60.267-25.067v-42.667h128c12.087 0 22.221-4.087 30.4-12.267s12.267-18.313 12.267-30.4c0-12.087-4.087-22.221-12.267-30.4s-18.313-12.267-30.4-12.267h-938.667zM170.667 320h682.667v426.667h-682.667v-426.667z" />
<glyph unicode="&#xe915;" glyph-name="smartphone" d="M298.667-21.333c-23.467 0-43.555 8.354-60.267 25.067s-25.067 36.8-25.067 60.267v768c0 23.467 8.355 43.555 25.067 60.267s36.8 25.067 60.267 25.067h426.667c23.467 0 43.554-8.355 60.267-25.067s25.067-36.8 25.067-60.267v-768c0-23.467-8.354-43.554-25.067-60.267s-36.8-25.067-60.267-25.067h-426.667zM298.667 106.667v-42.667h426.667v42.667h-426.667zM298.667 192h426.667v512h-426.667v-512zM298.667 789.333h426.667v42.667h-426.667v-42.667z" />
<glyph unicode="&#xe916;" glyph-name="visibility_off" d="M686.933 392.533l-61.867 61.867c7.821 37.692-1.954 69.867-29.333 96.534s-60.267 37.156-98.667 31.467l-61.867 61.867c12.087 5.689 24.533 9.956 37.333 12.8s25.954 4.267 39.467 4.267c53.333 0 98.667-18.667 136-56s56-82.668 56-136.001c0-13.508-1.421-26.667-4.267-39.467s-7.113-25.242-12.8-37.333zM823.467 258.133l-61.867 59.733c27.021 20.625 51.2 43.558 72.533 68.8 21.333 25.246 39.113 52.8 53.333 82.667-35.554 71.823-86.933 128.89-154.133 171.201s-140.979 63.467-221.333 63.467c-20.621 0-40.713-1.422-60.267-4.267s-39.289-7.111-59.2-12.8l-66.133 66.133c29.867 12.089 60.267 21.156 91.2 27.2s62.4 9.067 94.4 9.067c97.421 0 186.487-25.6 267.2-76.8s142.4-120.177 185.067-206.934c2.846-5.687 4.979-11.554 6.4-17.6 1.421-6.042 2.133-12.267 2.133-18.667s-0.533-12.621-1.6-18.667c-1.067-6.042-3.021-11.908-5.867-17.6-15.646-34.842-35.554-67.021-59.733-96.533-24.179-29.508-51.554-55.642-82.133-78.4zM512 149.333c-95.289 0-182.4 25.779-261.333 77.333-78.933 51.558-141.155 119.292-186.667 203.2-3.555 5.692-6.222 11.913-8 18.667-1.778 6.758-2.667 13.692-2.667 20.8 0 7.113 0.711 13.867 2.133 20.267s3.911 12.8 7.467 19.2c14.222 28.445 30.755 55.645 49.6 81.601s40.355 49.6 64.533 70.933l-88.533 89.6c-7.822 8.533-11.555 18.667-11.2 30.4s4.445 21.511 12.267 29.333c7.822 7.823 17.778 11.733 29.867 11.733s22.045-3.911 29.867-11.733l725.333-725.334c7.821-7.821 11.913-17.6 12.267-29.333s-3.733-21.867-12.267-30.4c-7.821-7.821-17.779-11.733-29.867-11.733s-22.046 3.913-29.867 11.733l-149.333 147.2c-24.887-7.821-50.133-13.687-75.733-17.6-25.6-3.908-51.554-5.867-77.867-5.867zM236.8 601.601c-20.622-18.489-39.467-38.755-56.533-60.8-17.067-22.042-31.645-45.868-43.733-71.468 35.555-71.821 86.933-128.887 154.133-171.2 67.2-42.308 140.979-63.467 221.333-63.467 14.221 0 28.087 0.892 41.6 2.667 13.513 1.779 27.379 3.733 41.6 5.867l-38.4 40.533c-7.821-2.133-15.287-3.733-22.4-4.8s-14.579-1.6-22.4-1.6c-53.333 0-98.667 18.667-136 56s-56 82.667-56 136c0 7.825 0.533 15.292 1.6 22.4 1.067 7.113 2.667 14.579 4.8 22.4l-89.6 87.468z" />
<glyph unicode="&#xe917;" glyph-name="visibility" d="M511.996 277.333c53.333 0 98.667 18.667 136 56s56 82.667 56 136c0 53.333-18.667 98.667-56 136s-82.667 56-136 56c-53.333 0-98.667-18.667-136-56s-56-82.667-56-136c0-53.333 18.667-98.667 56-136s82.667-56 136-56zM511.996 354.133c-32 0-59.2 11.2-81.6 33.6s-33.6 49.6-33.6 81.6c0 32 11.2 59.2 33.6 81.6s49.6 33.6 81.6 33.6c32 0 59.2-11.2 81.6-33.6s33.6-49.6 33.6-81.6c0-32-11.2-59.2-33.6-81.6s-49.6-33.6-81.6-33.6zM511.996 149.333c-95.289 0-182.222 25.6-260.8 76.8s-140.622 118.754-186.133 202.667c-3.555 6.4-6.222 12.979-8 19.733s-2.667 13.687-2.667 20.8c0 7.113 0.889 14.046 2.667 20.8s4.445 13.333 8 19.733c45.511 83.911 107.556 151.467 186.133 202.667s165.511 76.8 260.8 76.8c95.287 0 182.221-25.6 260.8-76.8s140.621-118.755 186.133-202.667c3.554-6.4 6.221-12.979 8-19.733s2.667-13.687 2.667-20.8c0-7.113-0.887-14.046-2.667-20.8s-4.446-13.333-8-19.733c-45.513-83.913-107.554-151.467-186.133-202.667s-165.513-76.8-260.8-76.8zM511.996 234.667c80.354 0 154.133 21.154 221.333 63.467s118.579 99.379 154.133 171.2c-35.554 71.822-86.933 128.889-154.133 171.2s-140.979 63.467-221.333 63.467c-80.354 0-154.133-21.155-221.333-63.467s-118.577-99.378-154.133-171.2c35.556-71.821 86.933-128.887 154.133-171.2s140.979-63.467 221.333-63.467z" />
<glyph unicode="&#xe918;" glyph-name="mail" d="M170.667 106.667c-23.467 0-43.555 8.354-60.267 25.067s-25.067 36.8-25.067 60.267v512c0 23.467 8.355 43.555 25.067 60.267s36.8 25.067 60.267 25.067h682.667c23.467 0 43.554-8.355 60.267-25.067s25.067-36.8 25.067-60.267v-512c0-23.467-8.354-43.554-25.067-60.267s-36.8-25.067-60.267-25.067h-682.667zM512 405.333l-341.333 213.333v-426.667h682.667v426.667l-341.333-213.333zM512 490.667l341.333 213.333h-682.667l341.333-213.333zM170.667 618.667v0z" />
<glyph unicode="&#xe919;" glyph-name="sms" d="M341.333 490.667c12.089 0 22.222 4.087 30.4 12.267s12.267 18.313 12.267 30.4c0 12.089-4.089 22.222-12.267 30.4s-18.311 12.267-30.4 12.267c-12.089 0-22.222-4.089-30.4-12.267s-12.267-18.311-12.267-30.4c0-12.087 4.089-22.221 12.267-30.4s18.311-12.267 30.4-12.267zM512 490.667c12.087 0 22.221 4.087 30.4 12.267s12.267 18.313 12.267 30.4c0 12.089-4.087 22.222-12.267 30.4s-18.313 12.267-30.4 12.267c-12.087 0-22.221-4.089-30.4-12.267s-12.267-18.311-12.267-30.4c0-12.087 4.087-22.221 12.267-30.4s18.313-12.267 30.4-12.267zM682.667 490.667c12.087 0 22.221 4.087 30.4 12.267s12.267 18.313 12.267 30.4c0 12.089-4.087 22.222-12.267 30.4s-18.313 12.267-30.4 12.267c-12.087 0-22.221-4.089-30.4-12.267s-12.267-18.311-12.267-30.4c0-12.087 4.087-22.221 12.267-30.4s18.313-12.267 30.4-12.267zM256 192l-98.133-98.133c-13.511-13.513-28.978-16.533-46.4-9.067s-26.133 20.8-26.133 40v664.533c0 23.467 8.355 43.555 25.067 60.267s36.8 25.067 60.267 25.067h682.667c23.467 0 43.554-8.355 60.267-25.067s25.067-36.8 25.067-60.267v-512c0-23.467-8.354-43.554-25.067-60.267s-36.8-25.067-60.267-25.067h-597.333zM219.733 277.333h633.6v512h-682.667v-560l49.067 48z" />
<glyph unicode="&#xe91a;" glyph-name="dialpad" d="M512-21.333c-23.467 0-43.554 8.354-60.267 25.067s-25.067 36.8-25.067 60.267c0 23.467 8.354 43.554 25.067 60.267s36.8 25.067 60.267 25.067c23.467 0 43.554-8.354 60.267-25.067s25.067-36.8 25.067-60.267c0-23.467-8.354-43.554-25.067-60.267s-36.8-25.067-60.267-25.067zM256 746.667c-23.467 0-43.555 8.355-60.267 25.067s-25.067 36.8-25.067 60.267c0 23.467 8.355 43.555 25.067 60.267s36.8 25.067 60.267 25.067c23.467 0 43.555-8.355 60.267-25.067s25.067-36.8 25.067-60.267c0-23.467-8.355-43.555-25.067-60.267s-36.8-25.067-60.267-25.067zM256 490.667c-23.467 0-43.555 8.354-60.267 25.067s-25.067 36.8-25.067 60.267c0 23.467 8.355 43.555 25.067 60.267s36.8 25.067 60.267 25.067c23.467 0 43.555-8.355 60.267-25.067s25.067-36.8 25.067-60.267c0-23.467-8.355-43.554-25.067-60.267s-36.8-25.067-60.267-25.067zM256 234.667c-23.467 0-43.555 8.354-60.267 25.067s-25.067 36.8-25.067 60.267c0 23.467 8.355 43.554 25.067 60.267s36.8 25.067 60.267 25.067c23.467 0 43.555-8.354 60.267-25.067s25.067-36.8 25.067-60.267c0-23.467-8.355-43.554-25.067-60.267s-36.8-25.067-60.267-25.067zM768 746.667c-23.467 0-43.554 8.355-60.267 25.067s-25.067 36.8-25.067 60.267c0 23.467 8.354 43.555 25.067 60.267s36.8 25.067 60.267 25.067c23.467 0 43.554-8.355 60.267-25.067s25.067-36.8 25.067-60.267c0-23.467-8.354-43.555-25.067-60.267s-36.8-25.067-60.267-25.067zM512 234.667c-23.467 0-43.554 8.354-60.267 25.067s-25.067 36.8-25.067 60.267c0 23.467 8.354 43.554 25.067 60.267s36.8 25.067 60.267 25.067c23.467 0 43.554-8.354 60.267-25.067s25.067-36.8 25.067-60.267c0-23.467-8.354-43.554-25.067-60.267s-36.8-25.067-60.267-25.067zM768 234.667c-23.467 0-43.554 8.354-60.267 25.067s-25.067 36.8-25.067 60.267c0 23.467 8.354 43.554 25.067 60.267s36.8 25.067 60.267 25.067c23.467 0 43.554-8.354 60.267-25.067s25.067-36.8 25.067-60.267c0-23.467-8.354-43.554-25.067-60.267s-36.8-25.067-60.267-25.067zM768 490.667c-23.467 0-43.554 8.354-60.267 25.067s-25.067 36.8-25.067 60.267c0 23.467 8.354 43.555 25.067 60.267s36.8 25.067 60.267 25.067c23.467 0 43.554-8.355 60.267-25.067s25.067-36.8 25.067-60.267c0-23.467-8.354-43.554-25.067-60.267s-36.8-25.067-60.267-25.067zM512 490.667c-23.467 0-43.554 8.354-60.267 25.067s-25.067 36.8-25.067 60.267c0 23.467 8.354 43.555 25.067 60.267s36.8 25.067 60.267 25.067c23.467 0 43.554-8.355 60.267-25.067s25.067-36.8 25.067-60.267c0-23.467-8.354-43.554-25.067-60.267s-36.8-25.067-60.267-25.067zM512 746.667c-23.467 0-43.554 8.355-60.267 25.067s-25.067 36.8-25.067 60.267c0 23.467 8.354 43.555 25.067 60.267s36.8 25.067 60.267 25.067c23.467 0 43.554-8.355 60.267-25.067s25.067-36.8 25.067-60.267c0-23.467-8.354-43.555-25.067-60.267s-36.8-25.067-60.267-25.067z" />
<glyph unicode="&#xe91b;" glyph-name="encrypted" d="M473.6 320.004h76.8c6.4 0 11.913 2.667 16.533 8s6.221 11.2 4.8 17.6l-20.267 112c14.221 7.113 25.421 17.421 33.6 30.933s12.267 28.446 12.267 44.8c0 23.467-8.354 43.555-25.067 60.267s-36.8 25.067-60.267 25.067c-23.467 0-43.554-8.356-60.267-25.067s-25.067-36.8-25.067-60.267c0-16.354 4.087-31.287 12.267-44.8s19.379-23.821 33.6-30.933l-20.267-112c-1.421-6.4 0.179-12.267 4.8-17.6s10.133-8 16.533-8zM512 25.604c-4.979 0-9.6 0.354-13.867 1.067s-8.533 1.779-12.8 3.2c-96 32-172.445 91.2-229.333 177.6s-85.333 179.379-85.333 278.933v201.6c0 17.777 5.155 33.777 15.467 48s23.645 24.533 40 30.933l256 96c9.954 3.555 19.913 5.333 29.867 5.333s19.913-1.778 29.867-5.333l256-96c16.354-6.4 29.687-16.711 40-30.933s15.467-30.223 15.467-48v-201.6c0-99.554-28.446-192.533-85.333-278.933s-133.333-145.6-229.333-177.6c-4.267-1.421-8.533-2.487-12.8-3.2s-8.887-1.067-13.867-1.067zM512 110.938c73.954 23.467 135.113 70.4 183.467 140.8s72.533 148.621 72.533 234.667v201.6l-256 96-256-96v-201.6c0-86.046 24.178-164.267 72.533-234.667s109.513-117.333 183.467-140.8z" />
<glyph unicode="&#xe91c;" glyph-name="fingerprint" d="M138.658 548.271c-4.978 3.555-8 8-9.067 13.333s0.533 10.844 4.8 16.533c44.089 60.444 99.377 107.377 165.867 140.8s137.421 50.133 212.8 50.133c75.379 0 146.487-16.178 213.333-48.533s122.667-79.111 167.467-140.267c4.979-6.4 6.579-12.089 4.8-17.067s-4.8-9.245-9.067-12.8c-4.267-3.556-9.246-5.156-14.933-4.8s-10.667 3.377-14.933 9.067c-39.113 55.467-89.421 97.955-150.933 127.467s-126.754 44.267-195.733 44.267c-68.979 0-133.69-14.756-194.134-44.267s-110.578-72-150.4-127.467c-4.267-6.4-9.245-9.956-14.933-10.667s-10.667 0.711-14.933 4.267zM633.591 22.404c-73.954 18.487-134.4 55.287-181.333 110.4s-70.4 122.487-70.4 202.133c0 35.554 12.8 65.421 38.4 89.6s56.534 36.267 92.8 36.267c36.267 0 67.2-12.087 92.8-36.267s38.4-54.046 38.4-89.6c0-23.467 8.887-43.2 26.667-59.2s38.754-24 62.933-24c24.179 0 44.8 8 61.867 24s25.6 35.733 25.6 59.2c0 82.487-30.221 151.821-90.667 208-60.446 56.177-132.621 84.267-216.533 84.267s-156.090-28.089-216.534-84.267c-60.445-56.179-90.667-125.154-90.667-206.933 0-17.067 1.6-38.4 4.8-64s10.844-55.467 22.933-89.6c2.133-6.4 1.955-12.087-0.533-17.067s-6.578-8.533-12.267-10.667c-5.689-2.133-11.2-1.954-16.533 0.533s-9.067 6.579-11.2 12.267c-10.667 27.733-18.311 55.287-22.933 82.667s-6.933 55.646-6.933 84.8c0 94.579 34.311 173.867 102.933 237.867s150.577 96 245.867 96c96 0 178.487-32 247.467-96s103.467-143.287 103.467-237.867c0-35.554-12.621-65.246-37.867-89.067s-56-35.733-92.267-35.733c-36.267 0-67.379 11.913-93.333 35.733s-38.933 53.513-38.933 89.067c0 23.467-8.713 43.2-26.133 59.2s-38.221 24-62.4 24c-24.179 0-44.979-8-62.4-24s-26.134-35.733-26.134-59.2c0-68.979 20.446-126.579 61.334-172.8s93.687-78.579 158.4-97.067c6.4-2.133 10.667-5.687 12.8-10.667s2.487-10.313 1.067-16c-1.421-4.979-4.267-9.246-8.533-12.8s-9.6-4.621-16-3.2zM277.324 771.204c-5.689-3.556-11.378-4.445-17.067-2.667s-9.956 5.511-12.8 11.2c-2.845 5.689-3.556 10.844-2.133 15.467s4.977 8.711 10.667 12.267c39.822 21.333 81.422 37.689 124.8 49.067s87.467 17.067 132.267 17.067c45.513 0 89.954-5.511 133.333-16.533s85.333-26.845 125.867-47.467c6.4-3.556 10.133-7.823 11.2-12.8s0.533-9.956-1.6-14.933c-2.133-4.978-5.687-8.889-10.667-11.733s-11.021-2.489-18.133 1.067c-37.687 19.2-76.621 33.955-116.8 44.267s-81.246 15.467-123.2 15.467c-41.246 0-81.779-4.8-121.6-14.4-39.823-9.6-77.867-24.711-114.133-45.333zM403.191 37.338c-41.956 44.087-74.133 89.067-96.533 134.933s-33.6 100.087-33.6 162.667c0 64.713 23.467 119.287 70.4 163.733 46.933 44.444 103.467 66.667 169.6 66.667s123.021-22.223 170.667-66.667c47.646-44.446 71.467-99.021 71.467-163.733 0-6.4-1.954-11.554-5.867-15.467s-9.067-5.867-15.467-5.867c-5.687 0-10.667 1.954-14.933 5.867s-6.4 9.067-6.4 15.467c0 53.333-19.733 97.954-59.2 133.867s-86.221 53.867-140.267 53.867c-54.046 0-100.445-17.954-139.2-53.867s-58.133-80.533-58.133-133.867c0-57.6 9.955-106.487 29.867-146.667s49.067-80.533 87.467-121.067c4.267-4.267 6.4-9.246 6.4-14.933s-2.133-10.667-6.4-14.933c-4.267-4.267-9.245-6.4-14.934-6.4s-10.667 2.133-14.933 6.4zM725.325 109.871c-63.287 0-118.221 21.333-164.8 64s-69.867 96.354-69.867 161.067c0 5.687 1.954 10.667 5.867 14.933s9.067 6.4 15.467 6.4c6.4 0 11.554-2.133 15.467-6.4s5.867-9.246 5.867-14.933c0-53.333 19.2-97.067 57.6-131.2s83.2-51.2 134.4-51.2c4.267 0 10.313 0.354 18.133 1.067s16 1.779 24.533 3.2c6.4 1.421 11.913 0.533 16.533-2.667s7.646-8 9.067-14.4c1.421-5.687 0.354-10.667-3.2-14.933s-8.179-7.113-13.867-8.533c-12.8-3.554-24-5.513-33.6-5.867s-15.467-0.533-17.6-0.533z" />
<glyph unicode="&#xe91d;" glyph-name="configured" horiz-adv-x="975" d="M394.175 21.514l-20.318 128c-12.868 4.745-26.412 11.176-40.635 19.305-14.222 8.124-26.751 16.594-37.587 25.395l-119.873-54.857-94.476 166.605 109.714 80.252c-1.355 6.095-2.201 13.039-2.54 20.826s-0.508 14.731-0.508 20.826c0 6.095 0.169 13.034 0.508 20.826 0.338 7.787 1.185 14.726 2.54 20.821l-109.714 80.256 94.476 166.603 119.873-54.857c10.836 8.804 23.365 17.27 37.587 25.397s27.767 14.222 40.635 18.286l20.318 129.016h186.921l20.319-128c12.863-4.741 26.58-11.005 41.14-18.794s26.921-16.423 37.079-25.905l119.876 54.857 94.476-166.603-109.714-78.223c1.351-6.773 2.199-14.053 2.536-21.84 0.341-7.787 0.512-15.067 0.512-21.84s-0.171-13.883-0.512-21.333c-0.336-7.451-1.185-14.56-2.536-21.333l109.714-79.238-94.476-166.605-119.876 54.857c-10.835-8.802-23.196-17.437-37.079-25.902-13.883-8.47-27.599-14.731-41.14-18.798l-20.319-128h-186.921zM487.634 295.799c36.571 0 67.725 12.868 93.462 38.605s38.605 56.891 38.605 93.462c0 36.571-12.868 67.724-38.605 93.459s-56.891 38.603-93.462 38.603c-36.57 0-67.723-12.868-93.459-38.603s-38.603-56.888-38.603-93.459c0-36.571 12.868-67.725 38.603-93.462s56.889-38.605 93.459-38.605zM487.634 356.752c-19.639 0-36.401 6.944-50.284 20.826s-20.826 30.647-20.826 50.288c0 19.641 6.942 36.401 20.826 50.285s30.645 20.825 50.284 20.825c19.641 0 36.406-6.942 50.288-20.825s20.826-30.643 20.826-50.285c0-19.641-6.944-36.406-20.826-50.288s-30.647-20.826-50.288-20.826zM442.937 82.466h89.397l14.224 113.781c22.348 5.417 43.51 13.883 63.488 25.395 19.983 11.513 38.098 25.395 54.35 41.652l107.686-46.733 40.633 73.143-95.49 70.095c2.706 11.518 4.91 22.86 6.602 34.036 1.692 11.171 2.54 22.518 2.54 34.031s-0.678 22.855-2.033 34.031c-1.356 11.174-3.725 22.518-7.109 34.031l95.49 70.095-40.633 73.143-107.686-46.73c-15.575 17.608-33.182 32.338-52.824 44.19s-41.311 19.471-65.014 22.857l-14.224 113.778h-89.397l-14.222-113.778c-23.026-4.741-44.529-12.868-64.508-24.381s-37.757-25.736-53.333-42.667l-107.683 46.73-40.635-73.143 95.492-70.095c-2.709-11.513-4.91-22.857-6.603-34.031-1.694-11.176-2.54-22.518-2.54-34.031s0.847-22.86 2.54-34.031c1.693-11.176 3.894-22.518 6.603-34.036l-95.492-70.095 40.635-73.143 107.683 46.733c16.254-16.257 34.37-30.14 54.349-41.652s41.143-19.978 63.492-25.395l14.222-113.781z" />
<glyph unicode="&#xe91e;" glyph-name="database" d="M512-64c-143.171 0-264.296 22.044-363.378 66.133s-148.622 97.894-148.622 161.422v568.889c0 62.578 50.015 116.148 150.044 160.711s220.682 66.844 361.956 66.844c141.272 0 261.928-22.282 361.956-66.844s150.044-98.133 150.044-160.711v-568.889c0-63.528-49.539-117.333-148.622-161.422s-220.206-66.133-363.378-66.133zM512 617.244c84.383 0 169.244 12.089 254.578 36.267s133.217 50.015 143.644 77.511c-10.428 27.496-58.072 53.571-142.933 78.222s-169.956 36.978-255.289 36.978c-86.282 0-170.904-12.089-253.867-36.267s-131.082-50.489-144.356-78.933c13.274-28.444 61.393-54.518 144.356-78.222s167.585-35.556 253.867-35.556zM512 334.222c39.822 0 78.222 1.894 115.2 5.689s72.294 9.244 105.956 16.356c33.661 7.111 65.422 15.883 95.289 26.311s57.128 22.282 81.778 35.556v170.667c-24.65-13.274-51.911-25.126-81.778-35.556s-61.628-19.2-95.289-26.311c-33.661-7.111-68.978-12.563-105.956-16.356s-75.378-5.689-115.2-5.689c-39.822 0-78.696 1.896-116.622 5.689s-73.718 9.244-107.378 16.356c-33.659 7.111-65.185 15.882-94.578 26.311s-55.941 22.282-79.644 35.556v-170.667c23.704-13.274 50.252-25.126 79.644-35.556 29.393-10.428 60.918-19.2 94.578-26.311s69.452-12.561 107.378-16.356c37.926-3.794 76.8-5.689 116.622-5.689zM512 49.778c43.615 0 87.939 3.317 132.978 9.956s86.517 15.406 124.444 26.311c37.928 10.906 69.689 23.228 95.289 36.978s40.772 27.733 45.511 41.956v139.378c-24.65-13.272-51.911-25.128-81.778-35.556s-61.628-19.2-95.289-26.311c-33.661-7.111-68.978-12.561-105.956-16.356s-75.378-5.689-115.2-5.689c-39.822 0-78.696 1.894-116.622 5.689s-73.718 9.244-107.378 16.356c-33.659 7.111-65.185 15.883-94.578 26.311s-55.941 22.283-79.644 35.556v-140.8c4.741-14.222 19.674-27.972 44.8-41.244s56.652-25.361 94.578-36.267c37.926-10.906 79.644-19.672 125.156-26.311s90.074-9.956 133.689-9.956z" />
<glyph unicode="&#xe91f;" glyph-name="filter_list" d="M426.667 192v64h170.667v-64h-170.667zM256 416v64h512v-64h-512zM128 640v64h768v-64h-768z" />
<glyph unicode="&#xe920;" glyph-name="grade" d="M350.72 175.36l161.28 97.28 161.28-98.56-42.24 184.32 142.080 122.88-186.88 16.64-74.24 174.080-74.24-172.8-186.88-16.64 142.080-124.16-42.24-183.040zM195.84-38.4l83.2 359.68-279.040 241.92 368.64 32 143.36 339.2 143.36-339.2 368.64-32-279.040-241.92 83.2-359.68-316.16 190.72-316.16-190.72z" />
<glyph unicode="&#xe921;" horiz-adv-x="1115" d="M550.907 872.415c0 30.791-24.961 55.751-55.751 55.751h-183.182c-30.791 0-55.751-24.961-55.751-55.751v-171.679c0-0.005 0-0.011 0-0.018v-71.662c0-61.581 49.921-111.502 111.502-111.502h366.364c61.581 0 111.502 49.921 111.502 111.502v109.733c0 61.581-49.921 111.502-111.502 111.502h-161.059c-12.217 0-22.123 9.905-22.123 22.124z" />
<glyph unicode="&#xe922;" horiz-adv-x="1115" d="M370.249 807.811h361.313c35.189 0 63.716-28.526 63.716-63.716v-212.384c0-35.189-28.526-63.716-63.716-63.716h-361.313c-35.189 0-63.716 28.526-63.716 63.716v212.384c0 35.189 28.526 63.716 63.716 63.716z" />
<glyph unicode="&#xe923;" horiz-adv-x="1115" d="M319.939 701.622h461.938c35.189 0 63.716-28.526 63.716-63.716v-155.748c0-35.189-28.526-63.716-63.716-63.716h-461.938c-35.189 0-63.716 28.526-63.716 63.716v155.748c0 35.189 28.526 63.716 63.716 63.716z" />
<glyph unicode="&#xe924;" horiz-adv-x="1115" d="M485.905 510.466h130.021c11.73 0 21.239-9.509 21.239-21.239v0c0-11.73-9.509-21.239-21.239-21.239h-130.021c-11.73 0-21.239 9.509-21.239 21.239v0c0 11.73 9.509 21.239 21.239 21.239z" />
<glyph unicode="&#xe925;" glyph-name="location" horiz-adv-x="975" d="M487.692 438.023c19.583 0 36.313 6.973 50.196 20.914 13.883 13.945 20.826 30.707 20.826 50.288s-6.973 36.312-20.914 50.195c-13.946 13.884-30.705 20.826-50.287 20.826-19.58 0-36.312-6.972-50.196-20.916s-20.825-30.705-20.825-50.286c0-19.58 6.972-36.312 20.916-50.195s30.705-20.826 50.284-20.826zM487.603 101.771c90.074 81.944 156.615 156.272 199.618 222.983 43.008 66.706 64.507 125.46 64.507 176.254 0 79.773-25.493 145.092-76.483 195.957-50.995 50.865-113.537 76.297-187.642 76.297-74.102 0-136.649-25.432-187.64-76.297s-76.487-116.184-76.487-195.957c0-50.794 22.011-109.548 66.031-176.254 44.021-66.711 110.053-141.039 198.095-222.983zM487.603 21.514c-109.037 92.784-190.476 178.966-244.317 258.54-53.841 79.579-80.762 153.229-80.762 220.954 0 101.587 32.677 182.518 98.031 242.793s141.037 90.413 227.048 90.413c86.013 0 161.691-30.138 227.047-90.413s98.031-141.206 98.031-242.793c0-67.724-26.917-141.374-80.759-220.954-53.843-79.575-135.28-165.756-244.318-258.54z" />
<glyph unicode="&#xe926;" glyph-name="production" horiz-adv-x="1152" d="M203.979-26.47c-44.444 0-82.222 15.558-113.333 46.669s-46.667 68.89-46.667 113.331c0 44.448 15.556 82.221 46.667 113.338 31.111 31.11 68.889 46.662 113.333 46.662h746.664c44.448 0 82.227-15.552 113.338-46.662 31.11-31.117 46.662-68.89 46.662-113.338 0-44.442-15.552-82.221-46.662-113.331s-68.89-46.669-113.338-46.669h-746.664zM203.979 53.53h746.664c22.669 0 41.67 7.667 57.005 23.002 15.328 15.334 22.995 34.336 22.995 56.998 0 22.669-7.667 41.67-22.995 57.005-15.334 15.328-34.336 22.995-57.005 22.995h-746.664c-22.666 0-41.667-7.667-57-22.995-15.333-15.334-23-34.336-23-57.005 0-22.662 7.667-41.664 23-56.998s34.333-23.002 57-23.002zM457.313 400.198c-11.334 0-20.833 3.834-28.5 11.5s-11.5 17.167-11.5 28.5v453.334c0 11.333 3.833 20.833 11.5 28.5s17.166 11.5 28.5 11.5h453.331c11.334 0 20.838-3.833 28.506-11.5 7.661-7.667 11.494-17.167 11.494-28.5v-453.334c0-11.333-3.834-20.833-11.494-28.5-7.667-7.667-17.171-11.5-28.506-11.5h-453.331zM497.313 480.198h373.331v373.334h-373.331v-373.334zM41.313 520.198v80h294.666v-80h-294.666zM575.979 680.198h216.002v80h-216.002v-80zM150.646 680.198h196v80h-196v-80z" />
<glyph unicode="&#xe927;" glyph-name="push_pin" d="M682.667 448l85.333-85.333v-85.333h-213.333v-256l-42.667-42.667-42.667 42.667v256h-213.333v85.333l85.333 85.333v298.667h-42.667v85.333h426.667v-85.333h-42.667v-298.667zM377.6 362.667h268.8l-49.067 49.067v334.933h-170.667v-334.933l-49.067-49.067z" />
<glyph unicode="&#xe928;" glyph-name="settings" horiz-adv-x="975" d="M354.191-39.619l-19.408 156.038c-10.513 4.062-20.419 8.938-29.718 14.629s-18.397 11.786-27.292 18.286l-144.345-60.952-133.428 231.619 124.937 95.086c-0.808 5.691-1.213 11.176-1.213 16.457v32.914c0 5.281 0.405 10.768 1.213 16.457l-124.937 95.086 133.428 231.619 144.345-60.952c8.895 6.501 18.195 12.597 27.899 18.286s19.408 10.565 29.111 14.629l19.408 156.038h266.855l19.407-156.038c10.513-4.063 20.421-8.94 29.72-14.629s18.398-11.784 27.292-18.286l144.345 60.952 133.427-231.619-124.938-95.086c0.809-5.689 1.214-11.176 1.214-16.457v-32.914c0-5.281-0.809-10.767-2.428-16.457l124.938-95.086-133.427-231.619-143.131 60.952c-8.894-6.5-18.198-12.595-27.902-18.286s-19.407-10.567-29.111-14.629l-19.407-156.038h-266.855zM490.047 277.333c46.899 0 86.928 16.662 120.081 49.981 33.158 33.319 49.732 73.548 49.732 120.686 0 47.137-16.574 87.365-49.732 120.686-33.153 33.32-73.182 49.981-120.081 49.981-47.713 0-87.944-16.66-120.694-49.981s-49.126-73.549-49.126-120.686c0-47.138 16.376-87.367 49.126-120.686s72.981-49.981 120.694-49.981zM490.047 374.857c-20.219 0-37.403 7.109-51.554 21.333s-21.228 31.49-21.228 51.81c0 20.319 7.076 37.587 21.228 51.81s31.335 21.333 51.554 21.333c20.212 0 37.396-7.111 51.551-21.333 14.151-14.222 21.226-31.49 21.226-51.81s-7.075-37.586-21.226-51.81c-14.156-14.224-31.339-21.333-51.551-21.333zM439.1 57.905h95.823l16.984 129.219c25.068 6.5 48.318 16.052 69.749 28.648 21.426 12.595 41.038 27.833 58.826 45.714l120.086-49.981 47.309 82.895-104.316 79.238c4.042 11.376 6.871 23.367 8.489 35.962s2.423 25.395 2.423 38.4c0 13.005-0.805 25.803-2.423 38.4s-4.447 24.584-8.489 35.962l104.316 79.238-47.309 82.895-120.086-51.2c-17.788 18.692-37.4 34.337-58.826 46.933-21.431 12.597-44.681 22.146-69.749 28.648l-15.77 129.219h-95.824l-16.982-129.219c-25.068-6.501-48.317-16.051-69.747-28.648s-41.039-27.835-58.829-45.714l-120.085 49.981-47.306-82.895 104.316-78.019c-4.043-12.19-6.873-24.381-8.491-36.571s-2.426-25.195-2.426-39.010c0-13.005 0.809-25.6 2.426-37.79s4.448-24.381 8.491-36.571l-104.316-79.238 47.306-82.895 120.085 51.2c17.79-18.69 37.4-34.338 58.829-46.933s44.679-22.148 69.747-28.648l15.769-129.219z" />
<glyph unicode="&#xe929;" glyph-name="tenable" horiz-adv-x="975" d="M365.73 21.514c-6.773 0-12.868 1.863-18.286 5.588s-9.143 8.977-11.175 15.745l-104.635 354.543h-150.35v60.952h172.699c6.773 0 12.868-1.863 18.286-5.588s9.143-8.972 11.175-15.745l77.206-260.067 138.159 632.891c1.356 7.45 4.74 13.376 10.157 17.778s11.854 6.603 19.305 6.603c7.446 0 13.883-2.032 19.3-6.095s8.802-9.82 10.157-17.27l95.495-429.716 69.076 228.573c2.033 6.773 5.759 12.021 11.176 15.746s11.513 5.587 18.286 5.587c6.773 0 12.698-1.693 17.779-5.079 5.076-3.387 8.636-8.127 10.664-14.222l54.857-153.396h58.924v-60.952h-81.271c-6.773 0-12.698 1.863-17.779 5.588-5.081 3.721-8.636 8.631-10.664 14.726l-30.476 84.32-75.176-256c-2.033-6.773-5.759-12.19-11.176-16.252-5.417-4.067-11.513-5.759-18.286-5.081s-12.868 3.048-18.286 7.109c-5.417 4.067-8.802 9.484-10.157 16.257l-92.443 408.38-133.081-611.556c-1.355-6.773-4.741-12.19-10.159-16.252-5.418-4.067-11.852-6.437-19.301-7.114z" />
<glyph unicode="&#xe92a;" glyph-name="download" d="M512 277.333l-213.333 213.333 59.733 61.867 110.933-110.933v347.733h85.333v-347.733l110.933 110.933 59.733-61.867-213.333-213.333zM256 106.667q-35.2 0-60.267 25.067t-25.067 60.267v128h85.333v-128h512v128h85.333v-128q0-35.2-25.067-60.267t-60.267-25.067h-512z" />
<glyph unicode="&#xe92b;" glyph-name="Active" d="M170.668 106.67c-23.466 0-43.555 8.356-60.266 25.068s-25.066 36.797-25.066 60.268v511.999c0 23.466 8.355 43.556 25.066 60.266s36.8 25.067 60.266 25.067h220.8c11.378 0 22.222-2.134 32.534-6.4s19.378-10.311 27.2-18.134l60.799-60.8h341.335c23.465 0 43.556-8.355 60.268-25.066s25.068-36.8 25.068-60.266h-461.869l-85.334 85.333h-220.8v-511.999l84.267 280.532c5.689 18.489 16.178 33.244 31.466 44.266s32.178 16.534 50.666 16.534h550.403c29.153 0 52.086-11.556 68.797-34.666s21.156-48.178 13.332-75.201l-76.8-256c-5.688-18.488-16.179-33.244-31.468-44.268-15.288-11.018-32.174-16.532-50.662-16.532h-640.003zM260.268 192.005h550.403l76.8 255.999h-550.403l-76.8-255.999z" />
<glyph unicode="&#xe92c;" glyph-name="database1" d="M512-64c-143.171 0-264.296 22.044-363.378 66.133s-148.622 97.894-148.622 161.422v568.889c0 62.578 50.015 116.148 150.044 160.711s220.682 66.844 361.956 66.844c141.272 0 261.928-22.282 361.956-66.844s150.044-98.133 150.044-160.711v-568.889c0-63.528-49.539-117.333-148.622-161.422s-220.206-66.133-363.378-66.133zM512 617.244c84.383 0 169.244 12.089 254.578 36.267s133.217 50.015 143.644 77.511c-10.428 27.496-58.072 53.571-142.933 78.222s-169.956 36.978-255.289 36.978c-86.282 0-170.904-12.089-253.867-36.267s-131.082-50.489-144.356-78.933c13.274-28.444 61.393-54.518 144.356-78.222s167.585-35.556 253.867-35.556zM512 334.222c39.822 0 78.222 1.894 115.2 5.689s72.294 9.244 105.956 16.356c33.661 7.111 65.422 15.883 95.289 26.311s57.128 22.282 81.778 35.556v170.667c-24.65-13.274-51.911-25.126-81.778-35.556s-61.628-19.2-95.289-26.311c-33.661-7.111-68.978-12.563-105.956-16.356s-75.378-5.689-115.2-5.689c-39.822 0-78.696 1.896-116.622 5.689s-73.718 9.244-107.378 16.356c-33.659 7.111-65.185 15.882-94.578 26.311s-55.941 22.282-79.644 35.556v-170.667c23.704-13.274 50.252-25.126 79.644-35.556 29.393-10.428 60.918-19.2 94.578-26.311s69.452-12.561 107.378-16.356c37.926-3.794 76.8-5.689 116.622-5.689zM512 49.778c43.615 0 87.939 3.317 132.978 9.956s86.517 15.406 124.444 26.311c37.928 10.906 69.689 23.228 95.289 36.978s40.772 27.733 45.511 41.956v139.378c-24.65-13.272-51.911-25.128-81.778-35.556s-61.628-19.2-95.289-26.311c-33.661-7.111-68.978-12.561-105.956-16.356s-75.378-5.689-115.2-5.689c-39.822 0-78.696 1.894-116.622 5.689s-73.718 9.244-107.378 16.356c-33.659 7.111-65.185 15.883-94.578 26.311s-55.941 22.283-79.644 35.556v-140.8c4.741-14.222 19.674-27.972 44.8-41.244s56.652-25.361 94.578-36.267c37.926-10.906 79.644-19.672 125.156-26.311s90.074-9.956 133.689-9.956z" />
<glyph unicode="&#xe92d;" glyph-name="favorite" d="M350.72 175.36l161.28 97.28 161.28-98.56-42.24 184.32 142.080 122.88-186.88 16.64-74.24 174.080-74.24-172.8-186.88-16.64 142.080-124.16-42.24-183.040zM195.84-38.4l83.2 359.68-279.040 241.92 368.64 32 143.36 339.2 143.36-339.2 368.64-32-279.040-241.92 83.2-359.68-316.16 190.72-316.16-190.72z" />
<glyph unicode="&#xe92e;" glyph-name="Network_Device" d="M256-21.335c-35.555 0-65.778 12.447-90.666 37.335s-37.334 55.112-37.334 90.665c0 35.558 12.445 65.782 37.334 90.67s55.111 37.33 90.666 37.33c9.955 0 19.2-1.065 27.734-3.2 8.533-2.13 16.711-4.977 24.533-8.53l60.8 75.73c-19.911 22.047-33.778 46.935-41.6 74.67-7.822 27.73-9.6 55.465-5.333 83.198l-86.4 28.8c-12.089-17.778-27.378-32-45.867-42.669-18.489-10.665-39.111-16-61.866-16-35.555 0-65.778 12.447-90.667 37.335s-37.333 55.111-37.333 90.666c0 35.556 12.444 65.778 37.333 90.667s55.111 37.333 90.667 37.333c35.555 0 65.778-12.444 90.666-37.333s37.334-55.111 37.334-90.667v-8.533l86.4-29.867c14.222 25.6 33.245 47.289 57.066 65.067s50.667 29.155 80.534 34.133v92.8c-27.734 7.822-50.666 22.934-68.8 45.334s-27.2 48.534-27.2 78.4c0 35.555 12.445 65.778 37.334 90.667s55.111 37.333 90.666 37.333c35.553 0 65.777-12.444 90.665-37.333s37.335-55.111 37.335-90.667c0-29.866-9.247-56-27.735-78.4s-41.242-37.511-68.265-45.334v-92.8c29.865-4.978 56.709-16.355 80.532-34.133s42.844-39.467 57.068-65.067l86.4 29.867v8.533c0 35.556 12.447 65.778 37.335 90.667s55.112 37.333 90.665 37.333c35.553 0 65.777-12.444 90.665-37.333s37.335-55.111 37.335-90.667c0-35.555-12.447-65.778-37.335-90.666s-55.112-37.335-90.665-37.335c-22.753 0-43.556 5.335-62.403 16-18.842 10.669-33.951 24.89-45.332 42.669l-86.4-28.8c4.27-27.734 2.488-55.289-5.33-82.666-7.823-27.377-21.688-52.444-41.6-75.203l60.8-74.665c7.818 3.553 16 6.221 24.53 7.997 8.535 1.782 17.782 2.668 27.735 2.668 35.553 0 65.777-12.442 90.665-37.33s37.335-55.112 37.335-90.67c0-35.553-12.447-65.777-37.335-90.665s-55.112-37.335-90.665-37.335c-35.553 0-65.777 12.447-90.665 37.335s-37.335 55.112-37.335 90.665c0 14.223 2.309 27.914 6.932 41.068 4.623 13.158 10.844 25.068 18.668 35.732l-60.8 75.735c-29.153-16.353-60.268-24.535-93.334-24.535s-64.178 8.182-93.333 24.535l-59.734-75.735c7.822-10.665 14.045-22.574 18.666-35.732 4.622-13.153 6.934-26.844 6.934-41.068 0-35.553-12.445-65.777-37.334-90.665s-55.111-37.335-90.666-37.335zM128 512c12.089 0 22.222 4.089 30.4 12.266s12.266 18.311 12.266 30.4c0 12.089-4.089 22.222-12.266 30.4s-18.311 12.267-30.4 12.267c-12.089 0-22.222-4.089-30.4-12.267s-12.266-18.311-12.266-30.4c0-12.089 4.089-22.222 12.266-30.4s18.311-12.266 30.4-12.266zM256 64c12.089 0 22.222 4.091 30.4 12.268s12.266 18.309 12.266 30.397c0 12.088-4.089 22.226-12.266 30.403s-18.311 12.268-30.4 12.268c-12.089 0-22.222-4.091-30.4-12.268s-12.266-18.314-12.266-30.403c0-12.088 4.089-22.221 12.266-30.397s18.311-12.268 30.4-12.268zM512 789.334c12.088 0 22.221 4.089 30.403 12.266 8.177 8.178 12.262 18.311 12.262 30.4s-4.086 22.222-12.262 30.4c-8.182 8.178-18.314 12.266-30.403 12.266s-22.222-4.089-30.4-12.266c-8.178-8.178-12.266-18.311-12.266-30.4s4.089-22.222 12.266-30.4c8.178-8.178 18.311-12.266 30.4-12.266zM512 320c29.865 0 55.112 10.312 75.735 30.935 20.618 20.618 30.93 45.865 30.93 75.73 0 29.869-10.312 55.113-30.93 75.735-20.623 20.622-45.87 30.934-75.735 30.934s-55.111-10.311-75.734-30.934-30.933-45.866-30.933-75.735c0-29.865 10.311-55.112 30.933-75.73 20.622-20.623 45.867-30.935 75.734-30.935zM768 64c12.088 0 22.221 4.091 30.403 12.268 8.177 8.177 12.262 18.309 12.262 30.397s-4.086 22.226-12.262 30.403c-8.182 8.177-18.314 12.268-30.403 12.268s-22.221-4.091-30.403-12.268c-8.177-8.177-12.262-18.314-12.262-30.403s4.086-22.221 12.262-30.397c8.182-8.177 18.314-12.268 30.403-12.268zM896 512c12.088 0 22.221 4.089 30.403 12.266 8.177 8.178 12.262 18.311 12.262 30.4s-4.086 22.222-12.262 30.4c-8.182 8.178-18.314 12.267-30.403 12.267s-22.221-4.089-30.403-12.267c-8.177-8.178-12.262-18.311-12.262-30.4s4.086-22.222 12.262-30.4c8.182-8.178 18.314-12.266 30.403-12.266z" />
<glyph unicode="&#xe92f;" glyph-name="Security" d="M255.999 21.335c-23.466 0-43.555 8.356-60.266 25.068s-25.067 36.803-25.067 60.268v426.668c0 23.466 8.356 43.555 25.067 60.266s36.8 25.066 60.266 25.066h42.666v85.334c0 59.022 20.8 109.334 62.4 150.934s91.911 62.4 150.934 62.4c59.024 0 109.334-20.8 150.934-62.4s62.397-91.911 62.397-150.934v-85.334h42.67c23.465 0 43.556-8.355 60.268-25.066s25.062-36.8 25.062-60.266v-426.668c0-23.465-8.351-43.556-25.062-60.268s-36.803-25.068-60.268-25.068h-512.001zM255.999 106.67h512.001v426.668h-512.001v-426.668zM511.999 234.67c23.466 0 43.557 8.356 60.269 25.068s25.062 36.797 25.062 60.268c0 23.465-8.351 43.556-25.062 60.268s-36.803 25.062-60.269 25.062c-23.466 0-43.556-8.351-60.266-25.062s-25.067-36.803-25.067-60.268c0-23.47 8.356-43.556 25.067-60.268s36.8-25.068 60.266-25.068zM383.999 618.671h256.001v85.334c0 35.556-12.447 65.778-37.335 90.666s-55.112 37.334-90.666 37.334c-35.556 0-65.778-12.444-90.666-37.334s-37.334-55.111-37.334-90.666v-85.334z" />
<glyph unicode="&#xe930;" glyph-name="settings1" horiz-adv-x="975" d="M354.191-39.619l-19.408 156.038c-10.513 4.062-20.419 8.938-29.718 14.629s-18.397 11.786-27.292 18.286l-144.345-60.952-133.428 231.619 124.937 95.086c-0.808 5.691-1.213 11.176-1.213 16.457v32.914c0 5.281 0.405 10.768 1.213 16.457l-124.937 95.086 133.428 231.619 144.345-60.952c8.895 6.501 18.195 12.597 27.899 18.286s19.408 10.565 29.111 14.629l19.408 156.038h266.855l19.407-156.038c10.513-4.063 20.421-8.94 29.72-14.629s18.398-11.784 27.292-18.286l144.345 60.952 133.427-231.619-124.938-95.086c0.809-5.689 1.214-11.176 1.214-16.457v-32.914c0-5.281-0.809-10.767-2.428-16.457l124.938-95.086-133.427-231.619-143.131 60.952c-8.894-6.5-18.198-12.595-27.902-18.286s-19.407-10.567-29.111-14.629l-19.407-156.038h-266.855zM490.047 277.333c46.899 0 86.928 16.662 120.081 49.981 33.158 33.319 49.732 73.548 49.732 120.686 0 47.137-16.574 87.365-49.732 120.686-33.153 33.32-73.182 49.981-120.081 49.981-47.713 0-87.944-16.66-120.694-49.981s-49.126-73.549-49.126-120.686c0-47.138 16.376-87.367 49.126-120.686s72.981-49.981 120.694-49.981zM490.047 374.857c-20.219 0-37.403 7.109-51.554 21.333s-21.228 31.49-21.228 51.81c0 20.319 7.076 37.587 21.228 51.81s31.335 21.333 51.554 21.333c20.212 0 37.396-7.111 51.551-21.333 14.151-14.222 21.226-31.49 21.226-51.81s-7.075-37.586-21.226-51.81c-14.156-14.224-31.339-21.333-51.551-21.333zM439.1 57.905h95.823l16.984 129.219c25.068 6.5 48.318 16.052 69.749 28.648 21.426 12.595 41.038 27.833 58.826 45.714l120.086-49.981 47.309 82.895-104.316 79.238c4.042 11.376 6.871 23.367 8.489 35.962s2.423 25.395 2.423 38.4c0 13.005-0.805 25.803-2.423 38.4s-4.447 24.584-8.489 35.962l104.316 79.238-47.309 82.895-120.086-51.2c-17.788 18.692-37.4 34.337-58.826 46.933-21.431 12.597-44.681 22.146-69.749 28.648l-15.77 129.219h-95.824l-16.982-129.219c-25.068-6.501-48.317-16.051-69.747-28.648s-41.039-27.835-58.829-45.714l-120.085 49.981-47.306-82.895 104.316-78.019c-4.043-12.19-6.873-24.381-8.491-36.571s-2.426-25.195-2.426-39.010c0-13.005 0.809-25.6 2.426-37.79s4.448-24.381 8.491-36.571l-104.316-79.238 47.306-82.895 120.085 51.2c17.79-18.69 37.4-34.338 58.829-46.933s44.679-22.148 69.747-28.648l15.769-129.219z" />
<glyph unicode="&#xe931;" glyph-name="Web" d="M512 21.33c-59.021 0-114.488 11.197-166.399 33.597s-97.066 52.803-135.466 91.203c-38.4 38.4-68.8 83.553-91.2 135.465s-33.6 107.377-33.6 166.4c0 59.023 11.2 114.49 33.6 166.401s52.8 97.066 91.2 135.466c38.4 38.4 83.555 68.8 135.466 91.2s107.378 33.6 166.399 33.6c59.023 0 114.488-11.2 166.4-33.6s97.070-52.8 135.47-91.2c38.4-38.4 68.797-83.555 91.197-135.466s33.603-107.378 33.603-166.401c0-59.023-11.203-114.488-33.603-166.4s-52.797-97.065-91.197-135.465c-38.4-38.4-83.558-68.803-135.47-91.203s-107.377-33.597-166.4-33.597zM469.335 108.795v83.2c-23.467 0-43.556 8.356-60.267 25.068s-25.066 36.803-25.066 60.268v42.665l-204.8 204.801c-2.134-12.8-4.089-25.6-5.866-38.4s-2.667-25.6-2.667-38.401c0-86.042 28.267-161.423 84.8-226.13 56.534-64.712 127.822-102.4 213.867-113.070zM763.735 217.595c14.223 15.647 27.023 32.532 38.4 50.668s20.797 36.977 28.268 56.535c7.465 19.553 13.153 39.644 17.065 60.268 3.912 20.618 5.868 41.6 5.868 62.93 0 69.69-19.379 133.335-58.132 190.935-38.758 57.6-90.491 99.2-155.203 124.8v-17.067c0-23.466-8.356-43.555-25.068-60.266s-36.797-25.066-60.262-25.066h-85.336v-85.334c0-12.089-4.089-22.222-12.267-30.4s-18.311-12.266-30.4-12.266h-85.333v-85.335h256.001c12.088 0 22.221-4.086 30.397-12.268 8.182-8.177 12.268-18.309 12.268-30.397v-128h42.67c18.488 0 35.2-5.514 50.13-16.532 14.935-11.023 25.247-25.426 30.935-43.203z" />
<glyph unicode="&#xe932;" glyph-name="fav-fill" horiz-adv-x="1084" d="M542.119 100.129l-249.976-150.588c-11.044-7.029-22.588-10.041-34.636-9.035s-22.588 5.018-31.623 12.047c-9.036 7.029-16.063 15.812-21.082 26.353s-6.024 22.335-3.012 35.388l66.259 284.612-221.365 191.248c-10.039 9.035-16.314 19.325-18.824 30.871s-1.757 22.839 2.259 33.882c4.016 11.043 10.039 20.078 18.071 27.105s19.074 11.545 33.13 13.553l292.141 25.6 112.941 268.047c5.019 12.047 12.8 21.083 23.341 27.106s21.333 9.035 32.376 9.035c11.043 0 21.835-3.012 32.376-9.035s18.321-15.059 23.341-27.106l112.94-268.047 292.141-25.6c14.053-2.008 25.1-6.525 33.129-13.553s14.053-16.062 18.071-27.105c4.018-11.044 4.771-22.338 2.259-33.882s-8.782-21.836-18.824-30.871l-221.365-191.248 66.259-284.612c3.012-13.053 2.006-24.847-3.012-35.388s-12.047-19.323-21.082-26.353c-9.035-7.029-19.576-11.041-31.624-12.047s-23.594 2.006-34.635 9.035l-249.975 150.588z" />
<glyph unicode="&#xe933;" glyph-name="Pin-Fill" horiz-adv-x="614" d="M512 499.2l102.4-102.4v-102.4h-256v-307.2l-51.2-51.2-51.2 51.2v307.2h-256v102.4l102.4 102.4v358.4h-51.2v102.4h512v-102.4h-51.2v-358.4z" />
<glyph unicode="&#xe934;" glyph-name="OneTime" horiz-adv-x="979" d="M489.316 837.674c-225.28 0-407.707-182.836-407.707-408.115s182.428-408.117 407.707-408.117c225.69 0 408.523 182.837 408.523 408.117s-182.833 408.115-408.523 408.115zM489.726 103.063c-180.388 0-326.494 146.107-326.494 326.496 0 180.386 146.106 326.492 326.494 326.492 180.384 0 326.491-146.106 326.491-326.492 0-180.389-146.107-326.496-326.491-326.496zM510.13 633.616h-61.217v-244.87l214.261-128.557 30.609 50.198-183.652 108.967v214.261z" />
<glyph unicode="&#xe935;" glyph-name="permanent" horiz-adv-x="2048" d="M1587.2 868.591c-122.88 0-238.936-47.787-321.704-130.56l-599.896-532.48c-54.614-54.614-127.146-84.48-204.8-84.48-159.574 0-289.28 128.853-289.28 288.426s129.706 288.426 289.28 288.426c77.654 0 150.186-29.866 208.214-87.893l96.426-85.334 128.854 114.346-107.52 94.72c-87.040 87.040-203.094 134.827-325.974 134.827-254.294 0-460.8-206.507-460.8-459.093s206.506-459.096 460.8-459.096c122.88 0 238.934 47.793 321.706 130.563l599.894 532.48c54.616 54.614 127.144 84.48 204.8 84.48 159.576 0 289.28-128.853 289.28-288.426s-129.704-288.426-289.28-288.426c-76.8 0-150.184 29.866-208.216 87.893l-97.28 86.187-128.847-114.347 108.367-95.573c87.040-86.19 202.24-133.974 325.976-133.974 254.296 0 460.8 205.654 460.8 459.094s-206.504 458.24-460.8 458.24z" />
<glyph unicode="&#xe936;" glyph-name="TimeBased" horiz-adv-x="614" d="M25.6 921.75l0.469-281.6 187.264-187.734-187.264-188.204-0.469-281.129h563.2v281.6l-187.734 187.733 187.734 187.264v282.070h-563.2zM494.934 241.219v-164.27h-375.467v164.27l187.734 187.73 187.734-187.73z" />
<glyph unicode="&#xe937;" glyph-name="Bookmark" horiz-adv-x="819" d="M409.601 72.533l-238.933-102.4c-37.926-16.118-73.955-13.039-108.089 9.243s-51.2 53.808-51.2 94.577v738.135c0 31.289 11.141 58.074 33.422 80.356s49.067 33.422 80.355 33.422h568.89c31.287 0 58.074-11.141 80.357-33.422s33.423-49.066 33.423-80.356v-738.135c0-40.769-17.067-72.294-51.2-94.577s-70.164-25.361-108.092-9.243l-238.933 102.4zM409.601 197.687l284.445-122.307v736.709h-568.89v-736.709l284.445 122.307zM409.601 812.089v0z" />
<glyph unicode="&#xe938;" d="M1024 448c0-282.77-229.23-512-512-512s-512 229.23-512 512c0 282.77 229.23 512 512 512s512-229.23 512-512z" />
<glyph unicode="&#xe939;" d="M358.4 652.8c-28.16 0-51.2-23.040-51.2-51.2s23.040-51.2 51.2-51.2c28.16 0 51.2 23.040 51.2 51.2s-23.040 51.2-51.2 51.2zM665.6 652.8c-28.16 0-51.2-23.040-51.2-51.2s23.040-51.2 51.2-51.2c28.16 0 51.2 23.040 51.2 51.2s-23.040 51.2-51.2 51.2zM512 652.8c-28.16 0-51.2-23.040-51.2-51.2s23.040-51.2 51.2-51.2c28.16 0 51.2 23.040 51.2 51.2s-23.040 51.2-51.2 51.2z" />
<glyph unicode="&#xe93a;" d="M358.4 499.2c-28.16 0-51.2-23.040-51.2-51.2s23.040-51.2 51.2-51.2c28.16 0 51.2 23.040 51.2 51.2s-23.040 51.2-51.2 51.2zM665.6 499.2c-28.16 0-51.2-23.040-51.2-51.2s23.040-51.2 51.2-51.2c28.16 0 51.2 23.040 51.2 51.2s-23.040 51.2-51.2 51.2zM512 499.2c-28.16 0-51.2-23.040-51.2-51.2s23.040-51.2 51.2-51.2c28.16 0 51.2 23.040 51.2 51.2s-23.040 51.2-51.2 51.2z" />
<glyph unicode="&#xe93b;" d="M358.4 345.6c-28.16 0-51.2-23.040-51.2-51.2s23.040-51.2 51.2-51.2c28.16 0 51.2 23.040 51.2 51.2s-23.040 51.2-51.2 51.2zM665.6 345.6c-28.16 0-51.2-23.040-51.2-51.2s23.040-51.2 51.2-51.2c28.16 0 51.2 23.040 51.2 51.2s-23.040 51.2-51.2 51.2zM512 345.6c-28.16 0-51.2-23.040-51.2-51.2s23.040-51.2 51.2-51.2c28.16 0 51.2 23.040 51.2 51.2s-23.040 51.2-51.2 51.2z" />
<glyph unicode="&#xe93c;" glyph-name="Notification" horiz-adv-x="819" d="M409.6-64c56.32 0 102.4 46.080 102.4 102.4h-204.8c0-56.32 46.080-102.4 102.4-102.4zM716.8 243.2v256c0 157.184-83.456 288.768-230.4 323.584v34.816c0 42.496-34.304 76.8-76.8 76.8s-76.8-34.304-76.8-76.8v-34.816c-146.432-34.816-230.4-165.888-230.4-323.584v-256l-102.4-102.4v-51.2h819.2v51.2l-102.4 102.4zM614.4 192h-409.6v307.2c0 126.976 77.312 230.4 204.8 230.4s204.8-103.424 204.8-230.4v-307.2z" />
<glyph unicode="&#xe93d;" glyph-name="access-type" d="M298.667 192c-71.111 0-131.555 24.887-181.333 74.667s-74.667 110.221-74.667 181.333c0 71.113 24.889 131.555 74.667 181.333s110.222 74.667 181.333 74.667c46.933 0 89.955-11.733 129.067-35.2s70.046-54.4 92.8-92.8h375.467c23.467 0 43.554-8.355 60.267-25.067s25.067-36.8 25.067-60.267v-85.333c0-23.467-8.354-43.554-25.067-60.267s-36.8-25.067-60.267-25.067v-42.667c0-23.467-8.354-43.554-25.067-60.267s-36.8-25.067-60.267-25.067h-85.333c-23.467 0-43.554 8.354-60.267 25.067s-25.067 36.8-25.067 60.267v42.667h-119.467c-22.754-38.4-53.687-69.333-92.8-92.8-39.111-23.467-82.133-35.2-129.067-35.2zM298.667 277.333c46.933 0 84.622 14.4 113.067 43.2 28.446 28.8 45.513 57.067 51.2 84.8h262.4v-128h85.333v128h85.333v85.333h-433.067c-5.687 27.733-22.754 56-51.2 84.8s-66.133 43.2-113.067 43.2-87.111-16.711-120.533-50.133c-33.422-33.422-50.133-73.6-50.133-120.533s16.711-87.113 50.133-120.533c33.422-33.421 73.6-50.133 120.533-50.133zM298.667 362.667c23.467 0 43.555 8.354 60.267 25.067s25.067 36.8 25.067 60.267c0 23.467-8.355 43.554-25.067 60.267s-36.8 25.067-60.267 25.067c-23.467 0-43.555-8.354-60.267-25.067s-25.067-36.8-25.067-60.267c0-23.467 8.355-43.554 25.067-60.267s36.8-25.067 60.267-25.067z" />
<glyph unicode="&#xe93e;" glyph-name="alias-name" d="M512 21.333c-59.021 0-114.489 11.2-166.4 33.6s-97.067 52.8-135.467 91.2c-38.4 38.4-68.8 83.554-91.2 135.467s-33.6 107.379-33.6 166.4c0 59.021 11.2 114.489 33.6 166.4s52.8 97.067 91.2 135.467c38.4 38.4 83.555 68.8 135.467 91.2s107.379 33.6 166.4 33.6c59.021 0 114.487-11.2 166.4-33.6s97.067-52.8 135.467-91.2c38.4-38.4 68.8-83.555 91.2-135.467s33.6-107.379 33.6-166.4v-61.867c0-41.954-14.4-77.687-43.2-107.2s-64.179-44.267-106.133-44.267c-24.887 0-48.354 5.333-70.4 16s-40.533 25.954-55.467 45.867c-20.621-20.621-43.913-36.087-69.867-46.4s-53.154-15.467-81.6-15.467c-59.021 0-109.333 20.8-150.933 62.4s-62.4 91.913-62.4 150.933c0 59.021 20.8 109.333 62.4 150.933s91.913 62.4 150.933 62.4c59.021 0 109.333-20.8 150.933-62.4s62.4-91.913 62.4-150.933v-61.867c0-18.487 6.046-34.133 18.133-46.933s27.379-19.2 45.867-19.2c18.487 0 33.779 6.4 45.867 19.2s18.133 28.446 18.133 46.933v61.867c0 95.289-33.067 176-99.2 242.133s-146.846 99.2-242.133 99.2c-95.289 0-176-33.067-242.133-99.2s-99.2-146.845-99.2-242.133c0-95.287 33.067-176 99.2-242.133s146.845-99.2 242.133-99.2h213.333v-85.333h-213.333zM512 320c35.554 0 65.779 12.446 90.667 37.333s37.333 55.113 37.333 90.667c0 35.554-12.446 65.779-37.333 90.667s-55.113 37.333-90.667 37.333-65.779-12.445-90.667-37.333c-24.889-24.887-37.333-55.113-37.333-90.667s12.445-65.779 37.333-90.667c24.887-24.887 55.113-37.333 90.667-37.333z" />
<glyph unicode="&#xe93f;" glyph-name="app-name" d="M256 106.667c-23.467 0-43.555 8.354-60.267 25.067s-25.067 36.8-25.067 60.267c0 23.467 8.355 43.554 25.067 60.267s36.8 25.067 60.267 25.067c23.467 0 43.555-8.354 60.267-25.067s25.067-36.8 25.067-60.267c0-23.467-8.355-43.554-25.067-60.267s-36.8-25.067-60.267-25.067zM512 106.667c-23.467 0-43.554 8.354-60.267 25.067s-25.067 36.8-25.067 60.267c0 23.467 8.354 43.554 25.067 60.267s36.8 25.067 60.267 25.067c23.467 0 43.554-8.354 60.267-25.067s25.067-36.8 25.067-60.267c0-23.467-8.354-43.554-25.067-60.267s-36.8-25.067-60.267-25.067zM768 106.667c-23.467 0-43.554 8.354-60.267 25.067s-25.067 36.8-25.067 60.267c0 23.467 8.354 43.554 25.067 60.267s36.8 25.067 60.267 25.067c23.467 0 43.554-8.354 60.267-25.067s25.067-36.8 25.067-60.267c0-23.467-8.354-43.554-25.067-60.267s-36.8-25.067-60.267-25.067zM256 362.667c-23.467 0-43.555 8.354-60.267 25.067s-25.067 36.8-25.067 60.267c0 23.467 8.355 43.554 25.067 60.267s36.8 25.067 60.267 25.067c23.467 0 43.555-8.354 60.267-25.067s25.067-36.8 25.067-60.267c0-23.467-8.355-43.554-25.067-60.267s-36.8-25.067-60.267-25.067zM512 362.667c-23.467 0-43.554 8.354-60.267 25.067s-25.067 36.8-25.067 60.267c0 23.467 8.354 43.554 25.067 60.267s36.8 25.067 60.267 25.067c23.467 0 43.554-8.354 60.267-25.067s25.067-36.8 25.067-60.267c0-23.467-8.354-43.554-25.067-60.267s-36.8-25.067-60.267-25.067zM768 362.667c-23.467 0-43.554 8.354-60.267 25.067s-25.067 36.8-25.067 60.267c0 23.467 8.354 43.554 25.067 60.267s36.8 25.067 60.267 25.067c23.467 0 43.554-8.354 60.267-25.067s25.067-36.8 25.067-60.267c0-23.467-8.354-43.554-25.067-60.267s-36.8-25.067-60.267-25.067zM256 618.667c-23.467 0-43.555 8.355-60.267 25.067s-25.067 36.8-25.067 60.267c0 23.467 8.355 43.555 25.067 60.267s36.8 25.067 60.267 25.067c23.467 0 43.555-8.355 60.267-25.067s25.067-36.8 25.067-60.267c0-23.467-8.355-43.555-25.067-60.267s-36.8-25.067-60.267-25.067zM512 618.667c-23.467 0-43.554 8.355-60.267 25.067s-25.067 36.8-25.067 60.267c0 23.467 8.354 43.555 25.067 60.267s36.8 25.067 60.267 25.067c23.467 0 43.554-8.355 60.267-25.067s25.067-36.8 25.067-60.267c0-23.467-8.354-43.555-25.067-60.267s-36.8-25.067-60.267-25.067zM768 618.667c-23.467 0-43.554 8.355-60.267 25.067s-25.067 36.8-25.067 60.267c0 23.467 8.354 43.555 25.067 60.267s36.8 25.067 60.267 25.067c23.467 0 43.554-8.355 60.267-25.067s25.067-36.8 25.067-60.267c0-23.467-8.354-43.555-25.067-60.267s-36.8-25.067-60.267-25.067z" />
<glyph unicode="&#xe940;" glyph-name="asset-name" d="M896 874.667h-768c-46.933 0-85.333-38.4-85.333-85.333v-512c0-46.933 38.4-85.333 85.333-85.333h298.667v-85.333h-85.333v-85.333h341.333v85.333h-85.333v85.333h298.667c46.933 0 85.333 38.4 85.333 85.333v512c0 46.933-38.4 85.333-85.333 85.333zM896 277.333h-768v512h768v-512z" />
<glyph unicode="&#xe941;" glyph-name="business-owner" d="M283.733 612.267c4.267-4.267 9.245-6.4 14.933-6.4s10.667 2.133 14.933 6.4l55.467 55.467c4.267 4.267 6.4 9.245 6.4 14.933s-2.133 10.667-6.4 14.933l-55.467 55.467c-4.267 4.267-9.245 6.4-14.933 6.4s-10.667-2.133-14.933-6.4l-55.467-55.467c-4.267-4.267-6.4-9.245-6.4-14.933s2.133-10.667 6.4-14.933l55.467-55.467zM170.667 362.667c-23.467 0-43.555 8.354-60.267 25.067s-25.067 36.8-25.067 60.267v384c0 23.467 8.355 43.555 25.067 60.267s36.8 25.067 60.267 25.067h682.667c23.467 0 43.554-8.355 60.267-25.067s25.067-36.8 25.067-60.267v-384c0-23.467-8.354-43.554-25.067-60.267s-36.8-25.067-60.267-25.067h-137.6c4.267 14.221 7.113 28.446 8.533 42.667s1.421 28.446 0 42.667h129.067v384h-682.667v-384h129.067c-1.422-14.221-1.422-28.446 0-42.667s4.267-28.446 8.533-42.667h-137.6zM704 661.333c17.779 0 32.887 6.222 45.333 18.667s18.667 27.555 18.667 45.333c0 17.778-6.221 32.889-18.667 45.333s-27.554 18.667-45.333 18.667c-17.779 0-32.887-6.222-45.333-18.667s-18.667-27.555-18.667-45.333c0-17.778 6.221-32.889 18.667-45.333s27.554-18.667 45.333-18.667zM256-21.333c-12.089 0-22.222 4.087-30.4 12.267s-12.267 18.313-12.267 30.4v46.933c0 24.887 6.933 48 20.8 69.333s32.178 37.333 54.933 48c34.845 16.354 71.111 28.621 108.8 36.8 37.687 8.179 75.733 12.267 114.133 12.267s76.446-4.087 114.133-12.267c37.687-8.179 73.954-20.446 108.8-36.8 22.754-10.667 41.067-26.667 54.933-48s20.8-44.446 20.8-69.333v-46.933c0-12.087-4.087-22.221-12.267-30.4s-18.313-12.267-30.4-12.267h-512zM298.667 64h426.667v4.267c0 8.533-2.487 16.354-7.467 23.467s-11.379 12.446-19.2 16c-29.867 13.513-60.446 23.821-91.733 30.933s-62.933 10.667-94.933 10.667c-32 0-63.646-3.554-94.933-10.667-31.289-7.113-61.867-17.421-91.733-30.933-7.822-3.554-14.222-8.887-19.2-16s-7.467-14.933-7.467-23.467v-4.267zM512 277.333c-41.246 0-76.446 14.579-105.6 43.733s-43.733 64.354-43.733 105.6 14.578 76.446 43.733 105.6c29.154 29.155 64.354 43.733 105.6 43.733s76.446-14.578 105.6-43.733c29.154-29.154 43.733-64.354 43.733-105.6s-14.579-76.446-43.733-105.6c-29.154-29.154-64.354-43.733-105.6-43.733zM512 362.667c17.779 0 32.887 6.221 45.333 18.667s18.667 27.554 18.667 45.333c0 17.779-6.221 32.887-18.667 45.333s-27.554 18.667-45.333 18.667c-17.779 0-32.887-6.221-45.333-18.667s-18.667-27.554-18.667-45.333c0-17.779 6.221-32.887 18.667-45.333s27.554-18.667 45.333-18.667z" />
<glyph unicode="&#xe942;" glyph-name="Child-Asset" d="M618.667 458.667c-14.933 0-27.554 5.154-37.867 15.467s-15.467 22.933-15.467 37.867c0 14.933 5.154 27.555 15.467 37.867s22.933 15.467 37.867 15.467c14.933 0 27.554-5.155 37.867-15.467s15.467-22.933 15.467-37.867c0-14.933-5.154-27.554-15.467-37.867s-22.933-15.467-37.867-15.467zM405.333 458.667c-14.933 0-27.555 5.154-37.867 15.467s-15.467 22.933-15.467 37.867c0 14.933 5.155 27.555 15.467 37.867s22.933 15.467 37.867 15.467c14.933 0 27.554-5.155 37.867-15.467s15.467-22.933 15.467-37.867c0-14.933-5.154-27.554-15.467-37.867s-22.933-15.467-37.867-15.467zM512 234.667c-42.667 0-81.246 11.733-115.733 35.2-34.489 23.467-59.911 54.4-76.267 92.8h384c-16.354-38.4-41.779-69.333-76.267-92.8s-73.067-35.2-115.733-35.2zM512 64c-53.333 0-103.289 10.133-149.867 30.4s-87.111 47.646-121.6 82.133c-34.489 34.487-61.867 75.021-82.133 121.6s-30.4 96.533-30.4 149.867c0 53.333 10.133 103.289 30.4 149.867s47.645 87.111 82.133 121.6c34.489 34.489 75.022 61.867 121.6 82.133s96.533 30.4 149.867 30.4c53.333 0 103.287-10.133 149.867-30.4s87.113-47.645 121.6-82.133c34.487-34.489 61.867-75.022 82.133-121.6s30.4-96.533 30.4-149.867c0-53.333-10.133-103.287-30.4-149.867s-47.646-87.113-82.133-121.6c-34.487-34.487-75.021-61.867-121.6-82.133s-96.533-30.4-149.867-30.4zM512 149.333c82.487 0 152.887 29.154 211.2 87.467s87.467 128.713 87.467 211.2c0 82.487-29.154 152.889-87.467 211.2s-128.713 87.467-211.2 87.467h-12.8c-4.267 0-8.533-0.711-12.8-2.133-4.267-4.267-7.113-8.889-8.533-13.867s-2.133-10.311-2.133-16c0-14.933 5.154-27.555 15.467-37.867s22.933-15.467 37.867-15.467c6.4 0 12.267 1.067 17.6 3.2s10.846 3.2 16.533 3.2c8.533 0 15.646-3.2 21.333-9.6s8.533-13.867 8.533-22.4c0-16.355-7.646-26.845-22.933-31.467s-28.979-6.933-41.067-6.933c-32 0-59.554 11.555-82.667 34.667-23.111 23.111-34.667 50.667-34.667 82.667v6.4c0 2.133 0.355 4.978 1.067 8.533-59.022-21.333-107.022-57.245-144-107.733s-55.467-108.446-55.467-173.867c0-82.487 29.155-152.887 87.467-211.2s128.713-87.467 211.2-87.467z" />
<glyph unicode="&#xe943;" glyph-name="domain-name" d="M512 21.333c-58.313 0-113.422 11.2-165.333 33.6s-97.245 52.979-136 91.733c-38.755 38.754-69.333 84.087-91.733 136s-33.6 107.021-33.6 165.333c0 59.021 11.2 114.311 33.6 165.867s52.978 96.711 91.733 135.467c38.755 38.755 84.089 69.333 136 91.733s107.021 33.6 165.333 33.6c59.021 0 114.313-11.2 165.867-33.6s96.713-52.978 135.467-91.733c38.754-38.755 69.333-83.911 91.733-135.467s33.6-106.846 33.6-165.867c0-58.313-11.2-113.421-33.6-165.333s-52.979-97.246-91.733-136c-38.754-38.754-83.913-69.333-135.467-91.733s-106.846-33.6-165.867-33.6zM512 108.8c18.487 25.6 34.487 52.267 48 80s24.533 57.246 33.067 88.533h-162.133c8.533-31.287 19.554-60.8 33.067-88.533s29.513-54.4 48-80zM401.067 125.867c-12.8 23.467-24 47.821-33.6 73.067s-17.6 51.379-24 78.4h-125.867c20.622-35.554 46.4-66.487 77.333-92.8s66.311-45.867 106.133-58.667zM622.933 125.867c39.821 12.8 75.2 32.354 106.133 58.667s56.713 57.246 77.333 92.8h-125.867c-6.4-27.021-14.4-53.154-24-78.4s-20.8-49.6-33.6-73.067zM181.333 362.667h145.067c-2.133 14.221-3.733 28.267-4.8 42.133s-1.6 28.267-1.6 43.2c0 14.933 0.533 29.333 1.6 43.2s2.667 27.913 4.8 42.133h-145.067c-3.555-14.221-6.222-28.267-8-42.133s-2.667-28.267-2.667-43.2c0-14.933 0.889-29.333 2.667-43.2s4.445-27.913 8-42.133zM411.733 362.667h200.533c2.133 14.221 3.733 28.267 4.8 42.133s1.6 28.267 1.6 43.2c0 14.933-0.533 29.333-1.6 43.2s-2.667 27.913-4.8 42.133h-200.533c-2.133-14.221-3.733-28.267-4.8-42.133s-1.6-28.267-1.6-43.2c0-14.933 0.533-29.333 1.6-43.2s2.667-27.913 4.8-42.133zM697.6 362.667h145.067c3.554 14.221 6.221 28.267 8 42.133s2.667 28.267 2.667 43.2c0 14.933-0.887 29.333-2.667 43.2s-4.446 27.913-8 42.133h-145.067c2.133-14.221 3.733-28.267 4.8-42.133s1.6-28.267 1.6-43.2c0-14.933-0.533-29.333-1.6-43.2s-2.667-27.913-4.8-42.133zM680.533 618.667h125.867c-20.621 35.555-46.4 66.489-77.333 92.8s-66.313 45.867-106.133 58.667c12.8-23.467 24-47.822 33.6-73.067s17.6-51.378 24-78.4zM430.933 618.667h162.133c-8.533 31.289-19.554 60.8-33.067 88.533s-29.513 54.4-48 80c-18.487-25.6-34.487-52.267-48-80s-24.533-57.245-33.067-88.533zM217.6 618.667h125.867c6.4 27.022 14.4 53.155 24 78.4s20.8 49.6 33.6 73.067c-39.822-12.8-75.2-32.355-106.133-58.667s-56.711-57.245-77.333-92.8z" />
<glyph unicode="&#xe944;" glyph-name="entitlement" d="M512.004 64l-144-48c-4.978-1.421-9.6-2.487-13.867-3.2s-8.533-1.067-12.8-1.067c-22.756 0-42.667 8-59.733 24s-25.6 36.446-25.6 61.333v232.533l-110.933 180.267c-4.267 7.113-7.467 14.4-9.6 21.867s-3.2 15.111-3.2 22.933c0 7.822 1.067 15.467 3.2 22.933s5.333 14.755 9.6 21.867l145.067 234.667c7.822 12.8 18.133 22.755 30.933 29.867s26.667 10.667 41.6 10.667h298.667c14.933 0 28.8-3.555 41.6-10.667s23.113-17.067 30.933-29.867l145.067-234.667c4.267-7.111 7.467-14.4 9.6-21.867s3.2-15.111 3.2-22.933c0-7.822-1.067-15.467-3.2-22.933s-5.333-14.754-9.6-21.867l-110.933-180.267v-232.533c0-24.887-8.533-45.333-25.6-61.333s-36.979-24-59.733-24c-4.267 0-8.533 0.354-12.8 1.067s-8.887 1.779-13.867 3.2l-144 48zM512.004 153.6l170.667-56.533v137.6h-341.333v-137.6l170.667 56.533zM362.671 320h298.667l145.067 234.667-145.067 234.667h-298.667l-145.067-234.667 145.067-234.667zM467.204 501.333l150.4 151.467c7.821 8.533 17.6 12.622 29.333 12.267s21.867-4.445 30.4-12.267c8.533-8.533 12.979-18.667 13.333-30.4s-3.733-21.867-12.267-30.4l-181.333-181.333c-8.533-8.533-18.487-12.8-29.867-12.8s-21.333 4.267-29.867 12.8l-90.667 90.667c-8.533 8.533-12.8 18.667-12.8 30.4s4.267 21.867 12.8 30.4c8.533 8.533 18.667 12.8 30.4 12.8s21.867-4.267 30.4-12.8l59.733-60.8zM512.004 234.667v0z" />
<glyph unicode="&#xe945;" glyph-name="host-name" d="M512 448c-46.933 0-87.111 16.713-120.533 50.133s-50.133 73.6-50.133 120.533c0 46.933 16.711 87.111 50.133 120.533s73.6 50.133 120.533 50.133c46.933 0 87.113-16.711 120.533-50.133s50.133-73.6 50.133-120.533c0-46.933-16.713-87.113-50.133-120.533s-73.6-50.133-120.533-50.133zM170.667 192v34.133c0 24.179 6.222 46.4 18.667 66.667s28.978 35.733 49.6 46.4c44.089 22.046 88.889 38.579 134.4 49.6s91.733 16.533 138.667 16.533c46.933 0 93.154-5.513 138.667-16.533s90.313-27.554 134.4-49.6c20.621-10.667 37.154-26.133 49.6-46.4s18.667-42.487 18.667-66.667v-34.133c0-23.467-8.354-43.554-25.067-60.267s-36.8-25.067-60.267-25.067h-512c-23.467 0-43.555 8.354-60.267 25.067s-25.067 36.8-25.067 60.267zM256 192h512v34.133c0 7.821-1.954 14.933-5.867 21.333s-9.067 11.379-15.467 14.933c-38.4 19.2-77.154 33.6-116.267 43.2s-78.579 14.4-118.4 14.4c-39.821 0-79.287-4.8-118.4-14.4-39.111-9.6-77.867-24-116.267-43.2-6.4-3.554-11.555-8.533-15.467-14.933s-5.867-13.513-5.867-21.333v-34.133zM512 533.333c23.467 0 43.554 8.355 60.267 25.067s25.067 36.8 25.067 60.267c0 23.467-8.354 43.555-25.067 60.267s-36.8 25.067-60.267 25.067c-23.467 0-43.554-8.355-60.267-25.067s-25.067-36.8-25.067-60.267c0-23.467 8.354-43.555 25.067-60.267s36.8-25.067 60.267-25.067z" />
<glyph unicode="&#xe946;" glyph-name="identify-category" d="M469.333 448c-46.933 0-87.111 16.713-120.533 50.133s-50.133 73.6-50.133 120.533c0 46.933 16.711 87.111 50.133 120.533s73.6 50.133 120.533 50.133c46.933 0 87.113-16.711 120.533-50.133s50.133-73.6 50.133-120.533c0-46.933-16.713-87.113-50.133-120.533s-73.6-50.133-120.533-50.133zM469.333 533.333c23.467 0 43.554 8.355 60.267 25.067s25.067 36.8 25.067 60.267c0 23.467-8.354 43.555-25.067 60.267s-36.8 25.067-60.267 25.067c-23.467 0-43.555-8.355-60.267-25.067s-25.067-36.8-25.067-60.267c0-23.467 8.355-43.555 25.067-60.267s36.8-25.067 60.267-25.067zM913.067-12.8l-106.667 106.667c-14.933-8.533-30.933-15.646-48-21.333s-35.2-8.533-54.4-8.533c-53.333 0-98.667 18.667-136 56s-56 82.667-56 136c0 53.333 18.667 98.667 56 136s82.667 56 136 56c53.333 0 98.667-18.667 136-56s56-82.667 56-136c0-19.2-2.846-37.333-8.533-54.4s-12.8-33.067-21.333-48l106.667-106.667c7.821-7.821 11.733-17.779 11.733-29.867s-3.913-22.046-11.733-29.867c-7.821-7.821-17.779-11.733-29.867-11.733s-22.046 3.913-29.867 11.733zM704 149.333c29.867 0 55.113 10.313 75.733 30.933s30.933 45.867 30.933 75.733c0 29.867-10.313 55.113-30.933 75.733s-45.867 30.933-75.733 30.933c-29.867 0-55.113-10.313-75.733-30.933s-30.933-45.867-30.933-75.733c0-29.867 10.313-55.113 30.933-75.733s45.867-30.933 75.733-30.933zM128 192v33.067c0 24.179 6.045 46.579 18.133 67.2s28.8 36.267 50.133 46.933c36.267 18.487 77.155 34.133 122.667 46.933s96 19.2 151.467 19.2c-8.533-12.8-15.821-26.487-21.867-41.067s-10.846-29.687-14.4-45.333c-42.667-3.554-80.711-10.846-114.133-21.867s-61.511-22.579-84.267-34.667c-7.111-3.554-12.622-8.713-16.533-15.467s-5.867-14.046-5.867-21.867v-33.067h220.8c3.554-15.646 8.354-30.579 14.4-44.8s13.333-27.733 21.867-40.533h-257.067c-23.467 0-43.555 8.354-60.267 25.067s-25.067 36.8-25.067 60.267z" />
<glyph unicode="&#xe947;" glyph-name="identify-type" d="M469.333 533.333c23.467 0 43.554 8.355 60.267 25.067s25.067 36.8 25.067 60.267c0 23.467-8.354 43.555-25.067 60.267s-36.8 25.067-60.267 25.067c-23.467 0-43.555-8.355-60.267-25.067s-25.067-36.8-25.067-60.267c0-23.467 8.355-43.555 25.067-60.267s36.8-25.067 60.267-25.067zM469.333 362.667c32 0 62.046 6.754 90.133 20.267s52.446 32.713 73.067 57.6c-24.887 16.354-51.021 28.8-78.4 37.333s-55.646 12.8-84.8 12.8c-29.154 0-57.422-4.267-84.8-12.8s-53.511-20.979-78.4-37.333c20.622-24.887 44.978-44.087 73.067-57.6s58.133-20.267 90.133-20.267zM469.333 192c-95.289 0-176 33.067-242.133 99.2s-99.2 146.846-99.2 242.133c0 95.289 33.067 176 99.2 242.133s146.845 99.2 242.133 99.2c95.287 0 176-33.067 242.133-99.2s99.2-146.845 99.2-242.133c0-39.821-6.4-77.333-19.2-112.533s-30.579-67.379-53.333-96.533l170.667-170.667c7.821-7.821 11.733-17.779 11.733-29.867s-3.913-22.046-11.733-29.867c-7.821-7.821-17.779-11.733-29.867-11.733s-22.046 3.913-29.867 11.733l-170.667 170.667c-29.154-22.754-61.333-40.533-96.533-53.333s-72.713-19.2-112.533-19.2zM469.333 277.333c71.113 0 131.554 24.887 181.333 74.667s74.667 110.221 74.667 181.333c0 71.111-24.887 131.555-74.667 181.333s-110.221 74.667-181.333 74.667c-71.111 0-131.555-24.889-181.333-74.667s-74.667-110.222-74.667-181.333c0-71.113 24.889-131.554 74.667-181.333s110.222-74.667 181.333-74.667z" />
<glyph unicode="&#xe948;" glyph-name="ip-address" d="M512 257.067c70.4 56.887 123.554 111.646 159.467 164.267s53.867 102.046 53.867 148.267c0 39.822-7.287 73.778-21.867 101.867s-32.533 50.845-53.867 68.267c-21.333 17.422-44.446 30.045-69.333 37.867s-47.646 11.733-68.267 11.733c-20.621 0-43.379-3.911-68.267-11.733-24.889-7.822-48-20.445-69.333-37.867s-39.289-40.178-53.867-68.267c-14.578-28.089-21.867-62.045-21.867-101.867 0-46.221 17.955-95.646 53.867-148.267s89.067-107.379 159.467-164.267zM512 166.4c-7.113 0-14.046 1.067-20.8 3.2s-12.979 5.333-18.667 9.6c-57.6 44.8-115.2 101.154-172.8 169.067s-86.4 141.687-86.4 221.333c0 50.489 9.067 94.755 27.2 132.8s41.422 69.867 69.867 95.467c28.445 25.6 60.445 44.8 96 57.6 35.554 12.8 70.754 19.2 105.6 19.2s70.046-6.4 105.6-19.2c35.554-12.8 67.554-32 96-57.6s51.733-57.422 69.867-95.467c18.133-38.045 27.2-82.311 27.2-132.8 0-79.646-28.8-153.421-86.4-221.333s-115.2-124.267-172.8-169.067c-5.687-4.267-11.913-7.467-18.667-9.6s-13.687-3.2-20.8-3.2zM512 490.667c23.467 0 43.554 8.354 60.267 25.067s25.067 36.8 25.067 60.267c0 23.467-8.354 43.555-25.067 60.267s-36.8 25.067-60.267 25.067c-23.467 0-43.554-8.355-60.267-25.067s-25.067-36.8-25.067-60.267c0-23.467 8.354-43.554 25.067-60.267s36.8-25.067 60.267-25.067zM256 21.333c-12.089 0-22.222 4.087-30.4 12.267s-12.267 18.313-12.267 30.4c0 12.087 4.089 22.221 12.267 30.4s18.311 12.267 30.4 12.267h512c12.087 0 22.221-4.087 30.4-12.267s12.267-18.313 12.267-30.4c0-12.087-4.087-22.221-12.267-30.4s-18.313-12.267-30.4-12.267h-512z" />
<glyph unicode="&#xe949;" glyph-name="is-priviledge" d="M551.467 609.053l212.267 211.2c7.821 7.822 17.6 11.911 29.333 12.267s21.867-3.733 30.4-12.267c7.821-7.823 11.733-17.778 11.733-29.867s-3.913-22.045-11.733-29.867l-242.133-242.133c-8.533-8.533-18.487-12.8-29.867-12.8s-21.333 4.267-29.867 12.8l-121.6 121.6c-8.533 8.533-12.622 18.489-12.267 29.867s4.8 21.334 13.333 29.867c8.533 7.822 18.489 11.911 29.867 12.267 11.379 0.355 21.333-3.733 29.867-12.267l90.667-90.667zM595.2 89.587l253.867 78.933c-3.554 6.4-8.713 11.913-15.467 16.533s-14.4 6.933-22.933 6.933h-215.467c-19.2 0-34.487 0.713-45.867 2.133s-23.113 4.267-35.2 8.533l-60.8 20.267c-11.379 3.554-19.554 10.667-24.533 21.333-4.978 10.667-5.689 21.687-2.133 33.067 3.554 11.379 10.487 19.733 20.8 25.067s21.154 6.221 32.533 2.667l44.8-14.933c12.087-3.554 25.779-6.4 41.067-8.533s36.087-3.554 62.4-4.267h11.733c0 7.821-2.313 15.287-6.933 22.4s-10.133 11.733-16.533 13.867l-249.6 91.733h-68.267v-234.667l296.533-81.067zM572.8 6.387l-274.133 76.8c-5.689-18.487-16.889-33.421-33.6-44.8s-33.955-17.067-51.733-17.067h-85.333c-23.467 0-43.555 8.354-60.267 25.067s-25.067 36.8-25.067 60.267v298.667c0 23.467 8.355 43.554 25.067 60.267s36.8 25.067 60.267 25.067h238.933c4.978 0 9.955-0.533 14.933-1.6s9.6-2.313 13.867-3.733l250.667-92.8c23.467-8.533 42.487-23.467 57.067-44.8s21.867-44.8 21.867-70.4h85.333c35.554 0 65.779-11.733 90.667-35.2s37.333-54.4 37.333-92.8c0-15.646-4.087-27.913-12.267-36.8s-20.8-16.179-37.867-21.867l-266.667-83.2c-7.821-2.846-16-4.267-24.533-4.267s-16.713 1.067-24.533 3.2zM128 106.654h85.333v298.667h-85.333v-298.667z" />
<glyph unicode="&#xe94a;" glyph-name="port" d="M859.733 447.996l-164.267 166.4c-7.821 7.822-11.908 17.6-12.267 29.333-0.354 11.733 3.733 21.867 12.267 30.4 7.825 7.822 17.779 11.733 29.867 11.733 12.092 0 22.046-3.911 29.867-11.733l196.267-196.266c4.267-4.267 7.292-8.887 9.067-13.867 1.779-4.979 2.667-10.313 2.667-16s-0.887-11.021-2.667-16c-1.775-4.979-4.8-9.6-9.067-13.867l-196.267-196.267c-7.821-7.821-17.6-11.913-29.333-12.267s-21.867 3.733-30.4 12.267c-7.821 7.821-11.733 17.779-11.733 29.867s3.913 22.046 11.733 29.867l164.267 166.4zM164.269 447.996l164.267-166.4c7.822-7.821 11.911-17.6 12.267-29.333s-3.733-21.867-12.267-30.4c-7.822-7.821-17.778-11.733-29.867-11.733s-22.045 3.913-29.867 11.733l-196.267 196.267c-4.267 4.267-7.289 8.887-9.067 13.867s-2.667 10.313-2.667 16c0 5.687 0.889 11.021 2.667 16s4.8 9.6 9.067 13.867l196.267 196.266c7.822 7.822 17.6 11.911 29.333 12.267s21.867-3.733 30.4-12.267c7.822-7.822 11.733-17.778 11.733-29.867s-3.911-22.045-11.733-29.867l-164.267-166.4zM341.335 405.329c-12.089 0-22.222 4.087-30.4 12.267s-12.267 18.313-12.267 30.4c0 12.087 4.089 22.221 12.267 30.4s18.311 12.267 30.4 12.267c12.089 0 22.222-4.087 30.4-12.267s12.267-18.313 12.267-30.4c0-12.087-4.089-22.221-12.267-30.4s-18.311-12.267-30.4-12.267zM512 405.329c-12.087 0-22.221 4.087-30.4 12.267-8.175 8.179-12.267 18.313-12.267 30.4s4.092 22.221 12.267 30.4c8.179 8.179 18.313 12.267 30.4 12.267 12.092 0 22.225-4.087 30.4-12.267 8.179-8.179 12.267-18.313 12.267-30.4s-4.087-22.221-12.267-30.4c-8.175-8.179-18.308-12.267-30.4-12.267zM682.667 405.329c-12.087 0-22.221 4.087-30.4 12.267-8.175 8.179-12.267 18.313-12.267 30.4s4.092 22.221 12.267 30.4c8.179 8.179 18.313 12.267 30.4 12.267 12.092 0 22.225-4.087 30.4-12.267 8.179-8.179 12.267-18.313 12.267-30.4s-4.087-22.221-12.267-30.4c-8.175-8.179-18.308-12.267-30.4-12.267z" />
<glyph unicode="&#xe94b;" glyph-name="technical-owner" d="M432.004 21.333c-10.667 0-19.911 3.554-27.734 10.667s-12.444 16-13.867 26.667l-12.8 99.2c-9.244 3.554-17.955 7.821-26.133 12.8s-16.177 10.313-24 16l-92.8-38.4c-9.955-4.267-19.911-4.8-29.867-1.6s-17.777 9.421-23.467 18.667l-78.933 137.6c-5.689 9.246-7.467 19.2-5.333 29.867s7.467 19.2 16 25.6l80 60.8c-0.711 4.979-1.067 9.779-1.067 14.4v28.8c0 4.621 0.356 9.421 1.067 14.4l-80 60.8c-8.533 6.4-13.867 14.933-16 25.6s-0.355 20.622 5.333 29.867l78.933 137.6c5.689 9.245 13.511 15.467 23.467 18.667s19.911 2.667 29.867-1.6l92.8-38.4c7.823 5.689 16 11.022 24.533 16s17.067 9.245 25.6 12.8l12.8 99.2c1.423 10.667 6.045 19.555 13.867 26.667s17.067 10.667 27.734 10.667h160c10.667 0 19.913-3.555 27.733-10.667s12.446-16 13.867-26.667l12.8-99.2c9.246-3.555 17.954-7.822 26.133-12.8s16.179-10.311 24-16l92.8 38.4c9.954 4.267 19.913 4.8 29.867 1.6s17.779-9.422 23.467-18.667l78.933-137.6c5.687-9.245 7.467-19.2 5.333-29.867s-7.467-19.2-16-25.6l-80-60.8c0.713-4.979 1.067-9.779 1.067-14.4v-28.8c0-4.621-0.713-9.421-2.133-14.4l80-60.8c8.533-6.4 13.867-14.933 16-25.6s0.354-20.621-5.333-29.867l-78.933-136.533c-5.687-9.246-13.687-15.646-24-19.2s-20.446-3.2-30.4 1.067l-90.667 38.4c-7.821-5.687-16-11.021-24.533-16s-17.067-9.246-25.6-12.8l-12.8-99.2c-1.421-10.667-6.046-19.554-13.867-26.667s-17.067-10.667-27.733-10.667h-160zM469.338 106.667h84.267l14.933 113.067c22.046 5.687 42.487 14.046 61.333 25.067s36.087 24.354 51.733 40l105.6-43.733 41.6 72.533-91.733 69.333c3.554 9.954 6.046 20.446 7.467 31.467s2.133 22.221 2.133 33.6c0 11.379-0.713 22.579-2.133 33.6s-3.913 21.513-7.467 31.467l91.733 69.333-41.6 72.533-105.6-44.8c-15.646 16.355-32.887 30.045-51.733 41.067s-39.287 19.378-61.333 25.067l-13.867 113.067h-84.267l-14.933-113.067c-22.046-5.689-42.489-14.045-61.334-25.067s-36.089-24.355-51.733-40l-105.6 43.733-41.6-72.533 91.733-68.267c-3.555-10.667-6.044-21.333-7.467-32s-2.133-22.046-2.133-34.133c0-11.379 0.711-22.4 2.133-33.067s3.911-21.333 7.467-32l-91.733-69.333 41.6-72.533 105.6 44.8c15.645-16.354 32.889-30.046 51.733-41.067s39.288-19.379 61.334-25.067l13.867-113.067zM514.138 298.667c41.246 0 76.446 14.579 105.6 43.733s43.733 64.354 43.733 105.6c0 41.246-14.579 76.446-43.733 105.6s-64.354 43.733-105.6 43.733c-41.954 0-77.333-14.578-106.134-43.733-28.8-29.154-43.2-64.354-43.2-105.6s14.4-76.446 43.2-105.6c28.8-29.154 64.18-43.733 106.134-43.733z" />
</font>
</defs>
</svg>
