<svg width="20" height="20" viewBox="0 0 20 20" fill="none" xmlns="http://www.w3.org/2000/svg">
<path fill-rule="evenodd" clip-rule="evenodd" d="M0.00012207 9.99939C0.00012207 4.48039 4.48012 -0.000610352 10.0001 -0.000610352C15.5301 -0.000610352 20.0001 4.48039 20.0001 9.99939C20.0001 15.5204 15.5301 19.9994 10.0001 19.9994C4.48012 19.9994 0.00012207 15.5204 0.00012207 9.99939ZM9.12012 6.20939C9.12012 5.73039 9.52012 5.32939 10.0001 5.32939C10.4801 5.32939 10.8701 5.73039 10.8701 6.20939V10.6294C10.8701 11.1104 10.4801 11.4994 10.0001 11.4994C9.52012 11.4994 9.12012 11.1104 9.12012 10.6294V6.20939ZM10.0101 14.6804C9.52012 14.6804 9.13012 14.2804 9.13012 13.8004C9.13012 13.3204 9.52012 12.9304 10.0001 12.9304C10.4901 12.9304 10.8801 13.3204 10.8801 13.8004C10.8801 14.2804 10.4901 14.6804 10.0101 14.6804Z" fill="#ED4B4D"/>
</svg>
